<?xml version="1.0" encoding="UTF-8" standalone="no"?>
<!-- Created with Inkscape (http://www.inkscape.org/) -->
<svg id="svg6169" xmlns:rdf="http://www.w3.org/1999/02/22-rdf-syntax-ns#" xmlns="http://www.w3.org/2000/svg" xml:space="preserve" height="174.37" viewBox="0 0 295.66327 174.37296" width="295.66" version="1.1" xmlns:cc="http://creativecommons.org/ns#" xmlns:dc="http://purl.org/dc/elements/1.1/"><metadata id="metadata6175"><rdf:RDF><cc:Work rdf:about=""><dc:format>image/svg+xml</dc:format><dc:type rdf:resource="http://purl.org/dc/dcmitype/StillImage"/><dc:title/></cc:Work></rdf:RDF></metadata><defs id="defs6173"><clipPath id="clipPath6185" clipPathUnits="userSpaceOnUse"><path id="path6187" d="m0 0.000023246h720v540h-720v-540z"/></clipPath></defs><g id="g6177" transform="matrix(1.25 0 0 -1.25 -778.7 14.592)"><g id="g6181"><g id="g6183" transform="translate(226.53 -215.08)" clip-path="url(#clipPath6185)"><path id="path6189" d="m-58.237 537.97h720v-540h-720v540z" fill-rule="evenodd" fill="#fff"/><g id="g6191" transform="matrix(.000078740 0 0 -.000078740 412.62 220.87)"><path id="path6193" stroke-linejoin="round" d="m-0.22364 0.11728 2.5725e6 1.1627" stroke="#5b92c7" stroke-miterlimit="10" stroke-width="76200" fill="none"/></g><path id="path6195" d="m615.18 220.87c0 2.4216 1.8096 4.3847 4.0419 4.3847 2.2322 0 4.0418-1.9631 4.0418-4.3847s-1.8096-4.3847-4.0418-4.3847c-2.2323 0-4.0419 1.9631-4.0419 4.3847z" fill-rule="evenodd" fill="#6095c9"/><g id="g6197" transform="matrix(.000078740 0 0 -.000078740 615.18 225.25)"><path id="path6199" stroke-linejoin="round" d="m-0.18153 55686c0-30754 22981-55686 51331-55686 28349 0 51331 24931 51331 55686 0 30754-22982 55686-51331 55686-28350 0-51331-24929-51331-55684z" stroke="#6095c9" stroke-miterlimit="10" stroke-width="25400" fill="none"/></g><path id="path6201" d="m545 220.87c0 2.4216 1.8096 4.3847 4.0418 4.3847 2.2323 0 4.0419-1.9631 4.0419-4.3847s-1.8096-4.3847-4.0419-4.3847c-2.2322 0-4.0418 1.9631-4.0418 4.3847z" fill-rule="evenodd" fill="#275d90"/><g id="g6203" transform="matrix(.000078740 0 0 -.000078740 545 225.25)"><path id="path6205" stroke-linejoin="round" d="m-0.13379 55686c0-30754 22981-55686 51331-55686 28349 0.11042 51329 24932 51329 55686 0 30755-22980 55684-51329 55684-28350 0-51331-24929-51331-55684z" stroke="#275d90" stroke-miterlimit="10" stroke-width="25400" fill="none"/></g><g id="g6207" transform="matrix(.000078740 0 0 -.000078740 412.62 220.87)"><path id="path6209" stroke-linejoin="round" d="m-0.22364 0.11728 1.6812e6 1.1627" stroke="#275d90" stroke-miterlimit="10" stroke-width="76200" fill="none"/></g><path id="path6211" d="m404.54 220.87c0 2.4216 1.8096 4.3847 4.0418 4.3847s4.0418-1.9631 4.0418-4.3847-1.8096-4.3847-4.0418-4.3847-4.0418 1.9631-4.0418 4.3847z" fill-rule="evenodd" fill="#6095c9"/><g id="g6213" transform="matrix(.000078740 0 0 -.000078740 404.54 225.25)"><path id="path6215" stroke-linejoin="round" d="m-0.19011 55686c0-30754 22981-55686 51331-55686 28349 0.11042 51329 24932 51329 55686 0 30755-22980 55684-51329 55684-28350 0-51331-24929-51331-55684z" stroke="#6095c9" stroke-miterlimit="10" stroke-width="25400" fill="none"/></g><g id="g6217" transform="matrix(.000078740 0 0 -.000078740 413.46 100.24)"><path id="path6219" stroke-linejoin="round" d="m-0.30696 0.074612h2.7624e6" stroke="#889297" stroke-miterlimit="10" stroke-width="25400" fill="none"/></g><path id="path6221" d="m632.96 100.24-7.4808-4.3638c-0.477-0.27828-1.0893-0.11714-1.3676 0.35991-0.2782 0.47705-0.1171 1.0894 0.3599 1.3676l4.5193 2.6362-4.5193 2.6362c-0.477 0.2783-0.6381 0.8906-0.3599 1.3677 0.2783 0.477 0.8906 0.6382 1.3676 0.3599l7.4808-4.3638z" fill-rule="evenodd" fill="#889297"/><g id="g6223" transform="matrix(.000078740 0 0 .000078740 414.32 100.24)"><path id="path6225" stroke-linejoin="round" d="m-0.1511-0.074612v1.2377e6" stroke="#889297" stroke-miterlimit="10" stroke-width="25400" fill="none"/></g><path id="path6227" d="m414.32 199.67-4.3637-7.4808c-0.2783-0.477-0.1172-1.0893 0.3598-1.3676 0.4771-0.2783 1.0894-0.1172 1.3677 0.3599l2.6362 4.5192 2.6363-4.5192c0.2782-0.4771 0.8905-0.6382 1.3676-0.3599 0.477 0.2783 0.6382 0.8906 0.3599 1.3676l-4.3638 7.4808z" fill-rule="evenodd" fill="#889297"/><g id="g6229" transform="matrix(.000078740 0 0 -.000078740 414.17 189.36)"><path id="path6231" stroke-linejoin="round" d="m-0.3311 1.132e6c4.3383e5 6600 8.6767e5 13200 1.1122e6 -1.4885e5 2.444e5 -1.6203e5 1.043e5 -6.6003e5 3.547e5 -8.2334e5 2.505e5 -1.6332e5 8.876e5 -1.6654e5 1.1481e6 -1.5655e5" stroke="#5b92c7" stroke-miterlimit="10" stroke-width="38100" fill="none"/></g><g id="g6233" transform="matrix(.000078740 0 0 -.000078740 414.17 124.22)"><path id="path6235" stroke-linejoin="round" d="m-0.3311-0.028925 1.2074e6 0.96894" stroke="#5b92c7" stroke-miterlimit="10" stroke-dasharray="76200, 25400" stroke-width="25400" fill="none"/></g><g id="g6237" transform="matrix(.000079439 0 0 -.000055243 510.71 221.38)"><path id="path6239" stroke-linejoin="round" d="m0.045592 0.022683 9116.9 1.7587e6" stroke="#5b92c7" stroke-miterlimit="10" stroke-dasharray="76200, 25400" stroke-width="25400" fill="none"/></g><g id="g6241" transform="translate(396.5 135.9)"><text id="text6243" transform="matrix(1,0,0,-1,0,-18)" font-style="italic" font-size="18px" font-family="Calibri" fill="#000000"><tspan id="tspan6245" y="0" x="0">p</tspan></text>
</g><g id="g6247" transform="translate(396.5 135.9)"><text id="text6249" transform="matrix(1 0 0 -1 9.2549 -18)" font-style="italic" font-size="18px" font-family="Calibri" fill="#000000"><tspan id="tspan6251" y="0" x="0">	</tspan></text>
</g><path id="path6253" d="m506.68 221.37c0 2.4217 1.8096 4.3848 4.0419 4.3848 2.2322 0 4.0418-1.9631 4.0418-4.3848 0-2.4216-1.8096-4.3847-4.0418-4.3847-2.2323 0-4.0419 1.9631-4.0419 4.3847z" fill-rule="evenodd" fill="#f1f0e7"/><g id="g6255" transform="matrix(.000078740 0 0 -.000078740 506.68 225.76)"><path id="path6257" stroke-linejoin="round" d="m0.062356 55686c0-30754 22982-55686 51331-55686 28349 0.1214 51329 24932 51329 55686 0 30755-22980 55684-51329 55684s-51331-24929-51331-55684z" stroke="#275d90" stroke-miterlimit="10" stroke-width="25400" fill="none"/></g><g id="g6259" transform="translate(399.82 105.43)"><text id="text6261" transform="matrix(1,0,0,-1,0,-18)" font-size="18px" font-family="Calibri" fill="#000000"><tspan id="tspan6263" y="0" x="0">0</tspan></text>
</g><g id="g6265" transform="translate(396.5 196.05)"><text id="text6267" transform="matrix(1,0,0,-1,0,-18)" font-size="18px" font-family="Calibri" fill="#000000"><tspan id="tspan6269" y="0" x="0">1</tspan></text>
</g><g id="g6271" transform="matrix(.000078740 0 0 -.000078740 620.07 189.36)"><path id="path6273" stroke-linejoin="round" d="m-0.12487 0.084008 0.77515 0.96889" stroke="#faa757" stroke-miterlimit="10" stroke-dasharray="76200, 25400" stroke-width="25400" fill="none"/></g></g></g></g></svg>
