<?xml version="1.0" encoding="utf-8" standalone="no"?>
<!DOCTYPE svg PUBLIC "-//W3C//DTD SVG 1.1//EN"
  "http://www.w3.org/Graphics/SVG/1.1/DTD/svg11.dtd">
<!-- Created with matplotlib (http://matplotlib.org/) -->
<svg height="432pt" version="1.1" viewBox="0 0 720 432" width="720pt" xmlns="http://www.w3.org/2000/svg" xmlns:xlink="http://www.w3.org/1999/xlink">
 <defs>
  <style type="text/css">
*{stroke-linecap:butt;stroke-linejoin:round;}
  </style>
 </defs>
 <g id="figure_1">
  <g id="patch_1">
   <path d="
M0 432
L720 432
L720 0
L0 0
z
" style="fill:#ffffff;"/>
  </g>
  <g id="axes_1">
   <g id="patch_2">
    <path d="
M18 197.345
L702 197.345
L702 10.8
L18 10.8
z
" style="fill:#ffffff;"/>
   </g>
   <g id="line2d_1">
    <path clip-path="url(#p953c1481b7)" d="
M18 57.5462
L21.2264 59.4285
L24.4528 59.7661
L27.6792 59.6853
L30.9057 60.2867
L34.1321 59.1225
L37.3585 61.1224
L40.5849 61.647
L43.8113 60.7628
L47.0377 60.034
L50.2642 60.1583
L53.4906 59.6457
L56.717 59.8127
L63.1698 57.8243
L69.6226 57.3586
L72.8491 56.1409
L76.0755 54.6586
L79.3019 53.9409
L82.5283 53.566
L85.7547 52.1157
L92.2075 50.108
L95.434 46.5643
L98.6604 43.8956
L101.887 42.233
L105.113 39.5164
L111.566 38.3619
L114.792 35.4489
L118.019 32.7562
L121.245 31.2763
L124.472 28.1142
L127.698 27.4121
L130.925 25.5067
L134.151 23.1746
L137.377 21.4597
L140.604 22.0688
L143.83 21.759
L147.057 21.6549
L150.283 21.3147
L153.509 21.5667
L156.736 21.1418
L159.962 21.4869
L163.189 21.3269
L166.415 21.9953
L169.642 22.8006
L172.868 22.1985
L176.094 19.3496
L179.321 21.1162
L182.547 19.8726
L185.774 15.6158
L189 14.3429
L192.226 13.6908
L195.453 15.7662
L198.679 16.8715
L201.906 16.9667
L205.132 15.4122
L208.358 16.591
L211.585 14.9999
L214.811 13.7518
L218.038 15.8884
L224.491 26.069
L227.717 30.0095
L230.943 34.4439
L234.17 38.1068
L237.396 39.0704
L240.623 42.2745
L243.849 47.2757
L247.075 50.0125
L253.528 60.2677
L256.755 64.4832
L259.981 67.2562
L263.208 71.8494
L266.434 74.8885
L269.66 77.4789
L272.887 76.8953
L276.113 80.1043
L279.34 81.1367
L282.566 80.7794
L285.792 79.8831
L289.019 78.3396
L292.245 75.7295
L295.472 74.0383
L298.698 70.2919
L301.925 68.3552
L305.151 67.5767
L308.377 65.5082
L311.604 64.0042
L314.83 64.0958
L321.283 62.014
L324.509 59.5839
L327.736 55.385
L330.962 52.6647
L334.189 48.537
L337.415 44.9003
L347.094 37.5188
L350.321 35.7659
L353.547 33.0184
L356.774 30.4909
L360 27.5607
L363.226 25.5293
L369.679 21.7735
L372.906 21.989
L376.132 21.8966
L379.358 20.967
L382.585 17.8992
L389.038 12.7042
L392.264 10.8
L395.491 12.8087
L398.717 16.7183
L401.943 22.0087
L405.17 26.0834
L408.396 29.7191
L411.623 31.8204
L414.849 35.8523
L418.075 38.6317
L421.302 42.3636
L424.528 46.6324
L427.755 48.4507
L430.981 46.1786
L434.208 44.7542
L437.434 44.4656
L440.66 41.7376
L443.887 39.408
L447.113 37.5336
L450.34 36.432
L453.566 35.1299
L456.792 34.8653
L460.019 33.99
L466.472 31.4583
L469.698 30.8235
L472.925 29.1892
L476.151 29.3572
L479.377 27.8512
L485.83 21.0656
L489.057 19.529
L492.283 21.6631
L495.509 24.2177
L498.736 25.8723
L505.189 30.3247
L508.415 34.6188
L511.642 38.402
L514.868 41.9073
L521.321 49.7033
L524.547 53.8378
L531 60.8379
L534.226 63.1361
L537.453 66
L540.679 67.9148
L543.906 71.498
L547.132 75.8644
L550.358 79.6237
L553.585 83.699
L556.811 87.196
L560.038 91.4205
L563.264 92.4336
L566.491 95.3932
L569.717 99.0554
L572.943 99.8789
L576.17 100.401
L579.396 101.514
L582.623 102.129
L585.849 103.117
L592.302 105.537
L595.528 106.038
L598.755 106.298
L601.981 108.823
L605.208 111.15
L608.434 113.904
L611.66 117.671
L614.887 120.061
L618.113 120.664
L621.34 121.727
L624.566 123.168
L627.792 124.485
L631.019 127.333
L637.472 132.146
L640.698 136.167
L647.151 143.467
L650.377 147.709
L653.604 151.662
L656.83 155.428
L660.057 158.687
L672.962 172.37
L676.189 176.501
L679.415 180.02
L685.868 186.444
L689.094 189.818
L692.321 192.602
L695.547 195.199
L698.774 197.345
L702 197.011
L702 197.011" style="fill:none;stroke:#0000ff;stroke-linecap:square;stroke-width:2;"/>
   </g>
   <g id="line2d_2">
    <defs>
     <path d="
M0 3
C0.795609 3 1.55874 2.6839 2.12132 2.12132
C2.6839 1.55874 3 0.795609 3 0
C3 -0.795609 2.6839 -1.55874 2.12132 -2.12132
C1.55874 -2.6839 0.795609 -3 0 -3
C-0.795609 -3 -1.55874 -2.6839 -2.12132 -2.12132
C-2.6839 -1.55874 -3 -0.795609 -3 0
C-3 0.795609 -2.6839 1.55874 -2.12132 2.12132
C-1.55874 2.6839 -0.795609 3 0 3
z
" id="md21b4ff0a3" style="stroke:#000000;stroke-width:0.5;"/>
    </defs>
    <g clip-path="url(#p953c1481b7)">
     <use style="stroke:#000000;stroke-width:0.5;" x="18.0" xlink:href="#md21b4ff0a3" y="57.5461555959"/>
    </g>
   </g>
   <g id="line2d_3">
    <g clip-path="url(#p953c1481b7)">
     <use style="stroke:#000000;stroke-width:0.5;" x="101.886792453" xlink:href="#md21b4ff0a3" y="42.2330353537"/>
    </g>
   </g>
   <g id="line2d_4">
    <g clip-path="url(#p953c1481b7)">
     <use style="stroke:#000000;stroke-width:0.5;" x="172.867924528" xlink:href="#md21b4ff0a3" y="22.1984711411"/>
    </g>
   </g>
   <g id="line2d_5">
    <g clip-path="url(#p953c1481b7)">
     <use style="stroke:#000000;stroke-width:0.5;" x="176.094339623" xlink:href="#md21b4ff0a3" y="19.3496316346"/>
    </g>
   </g>
   <g id="line2d_6">
    <g clip-path="url(#p953c1481b7)">
     <use style="stroke:#000000;stroke-width:0.5;" x="189.0" xlink:href="#md21b4ff0a3" y="14.3429451977"/>
    </g>
   </g>
   <g id="line2d_7">
    <g clip-path="url(#p953c1481b7)">
     <use style="stroke:#000000;stroke-width:0.5;" x="243.849056604" xlink:href="#md21b4ff0a3" y="47.2756804172"/>
    </g>
   </g>
   <g id="line2d_8">
    <g clip-path="url(#p953c1481b7)">
     <use style="stroke:#000000;stroke-width:0.5;" x="285.79245283" xlink:href="#md21b4ff0a3" y="79.883076836"/>
    </g>
   </g>
   <g id="line2d_9">
    <g clip-path="url(#p953c1481b7)">
     <use style="stroke:#000000;stroke-width:0.5;" x="305.150943396" xlink:href="#md21b4ff0a3" y="67.5767324774"/>
    </g>
   </g>
   <g id="line2d_10">
    <g clip-path="url(#p953c1481b7)">
     <use style="stroke:#000000;stroke-width:0.5;" x="376.132075472" xlink:href="#md21b4ff0a3" y="21.8965644075"/>
    </g>
   </g>
   <g id="line2d_11">
    <g clip-path="url(#p953c1481b7)">
     <use style="stroke:#000000;stroke-width:0.5;" x="434.20754717" xlink:href="#md21b4ff0a3" y="44.7541749224"/>
    </g>
   </g>
   <g id="line2d_12">
    <g clip-path="url(#p953c1481b7)">
     <use style="stroke:#000000;stroke-width:0.5;" x="450.339622642" xlink:href="#md21b4ff0a3" y="36.4320014756"/>
    </g>
   </g>
   <g id="line2d_13">
    <g clip-path="url(#p953c1481b7)">
     <use style="stroke:#000000;stroke-width:0.5;" x="527.773584906" xlink:href="#md21b4ff0a3" y="57.3720288716"/>
    </g>
   </g>
   <g id="line2d_14">
    <g clip-path="url(#p953c1481b7)">
     <use style="stroke:#000000;stroke-width:0.5;" x="543.905660377" xlink:href="#md21b4ff0a3" y="71.4979741916"/>
    </g>
   </g>
   <g id="line2d_15">
    <g clip-path="url(#p953c1481b7)">
     <use style="stroke:#000000;stroke-width:0.5;" x="563.264150943" xlink:href="#md21b4ff0a3" y="92.4335610307"/>
    </g>
   </g>
   <g id="line2d_16">
    <g clip-path="url(#p953c1481b7)">
     <use style="stroke:#000000;stroke-width:0.5;" x="598.754716981" xlink:href="#md21b4ff0a3" y="106.298072443"/>
    </g>
   </g>
   <g id="line2d_17">
    <g clip-path="url(#p953c1481b7)">
     <use style="stroke:#000000;stroke-width:0.5;" x="614.886792453" xlink:href="#md21b4ff0a3" y="120.060616765"/>
    </g>
   </g>
   <g id="line2d_18">
    <g clip-path="url(#p953c1481b7)">
     <use style="stroke:#000000;stroke-width:0.5;" x="624.566037736" xlink:href="#md21b4ff0a3" y="123.16757951"/>
    </g>
   </g>
   <g id="patch_3">
    <path d="
M18 197.345
L18 10.8" style="fill:none;stroke:#000000;stroke-linecap:square;stroke-linejoin:miter;"/>
   </g>
   <g id="patch_4">
    <path d="
M18 197.345
L702 197.345" style="fill:none;stroke:#000000;stroke-linecap:square;stroke-linejoin:miter;"/>
   </g>
   <g id="matplotlib.axis_1">
    <g id="xtick_1"/>
    <g id="xtick_2"/>
    <g id="xtick_3"/>
    <g id="xtick_4"/>
    <g id="xtick_5"/>
   </g>
   <g id="matplotlib.axis_2">
    <g id="ytick_1"/>
    <g id="ytick_2"/>
    <g id="ytick_3"/>
    <g id="ytick_4"/>
    <g id="ytick_5"/>
    <g id="ytick_6"/>
   </g>
  </g>
  <g id="axes_2">
   <g id="patch_5">
    <path d="
M18 421.2
L702 421.2
L702 234.655
L18 234.655
z
" style="fill:#ffffff;"/>
   </g>
   <g id="line2d_19">
    <path clip-path="url(#p9d51645ed2)" d="
M18 360.642
L21.2264 359.648
L24.4528 358.766
L27.6792 358.706
L30.9057 359.056
L34.1321 358.951
L37.3585 358.231
L40.5849 357.716
L43.8113 357.991
L47.0377 358.569
L50.2642 358.754
L56.717 358.427
L63.1698 358.685
L69.6226 358.333
L76.0755 358.844
L79.3019 358.717
L82.5283 358.107
L85.7547 357.327
L88.9811 356.826
L92.2075 357.135
L95.434 358.337
L98.6604 359.716
L101.887 360.393
L105.113 359.965
L108.34 358.784
L111.566 357.896
L114.792 358.045
L121.245 359.596
L124.472 359.87
L127.698 359.999
L130.925 360.512
L134.151 361.305
L137.377 361.567
L140.604 360.95
L143.83 360.05
L147.057 359.502
L150.283 359.36
L156.736 359.515
L159.962 359.393
L163.189 358.784
L166.415 357.82
L169.642 357.183
L179.321 357.28
L182.547 358.457
L185.774 360.921
L189 362.784
L192.226 362.361
L195.453 360.164
L198.679 358.139
L201.906 357.602
L205.132 358.529
L208.358 360.638
L211.585 363.605
L214.811 366.003
L218.038 365.98
L221.264 363.423
L224.491 360.08
L227.717 357.655
L230.943 356.914
L234.17 357.882
L237.396 359.674
L240.623 360.932
L243.849 361.096
L247.075 360.422
L253.528 357.969
L256.755 357.134
L266.434 355.415
L272.887 355.995
L276.113 355.524
L279.34 354.713
L282.566 354.471
L285.792 355.009
L289.019 356.029
L292.245 357.331
L295.472 358.811
L298.698 360.104
L301.925 360.733
L305.151 360.735
L308.377 360.4
L311.604 359.552
L314.83 358.004
L318.057 356.3
L321.283 355.379
L324.509 355.714
L327.736 356.971
L330.962 358.504
L334.189 359.843
L337.415 360.619
L340.642 360.629
L343.868 360.065
L347.094 359.348
L350.321 358.889
L353.547 358.987
L356.774 359.635
L360 360.52
L363.226 361.272
L366.453 361.493
L369.679 360.692
L376.132 357.031
L379.358 356.757
L382.585 358.679
L385.811 362.202
L389.038 365.912
L392.264 368.036
L395.491 367.336
L398.717 364.217
L401.943 360.579
L405.17 358.302
L408.396 357.887
L411.623 358.411
L414.849 358.522
L418.075 357.32
L424.528 352.532
L427.755 352.066
L430.981 353.565
L434.208 355.525
L437.434 357.044
L443.887 359.728
L447.113 360.545
L450.34 360.569
L453.566 359.976
L456.792 359.225
L460.019 358.798
L466.472 358.906
L469.698 358.572
L472.925 357.691
L476.151 357.043
L479.377 358.024
L482.604 361.013
L485.83 364.336
L489.057 365.704
L492.283 364.636
L495.509 362.777
L498.736 361.787
L505.189 361.532
L508.415 360.841
L511.642 360.032
L521.321 358.451
L524.547 357.746
L527.774 357.317
L531 357.536
L534.226 358.485
L537.453 359.808
L540.679 360.774
L543.906 360.787
L547.132 359.936
L553.585 357.707
L556.811 357.02
L560.038 356.905
L563.264 357.005
L566.491 356.704
L569.717 356.262
L572.943 356.514
L579.396 358.526
L582.623 359.069
L589.075 359.14
L592.302 359.63
L595.528 360.697
L598.755 361.642
L601.981 361.662
L605.208 360.561
L608.434 358.749
L611.66 357.13
L614.887 356.724
L618.113 357.731
L621.34 359.329
L624.566 360.593
L627.792 361.189
L631.019 361.336
L634.245 361.339
L637.472 361.181
L640.698 360.733
L650.377 358.84
L653.604 358.389
L656.83 358.298
L660.057 358.539
L666.509 359.189
L669.736 359.279
L672.962 359.063
L679.415 358.275
L682.642 358.034
L685.868 357.655
L689.094 356.904
L695.547 354.887
L698.774 354.457
L702 354.481
L702 354.481" style="fill:none;stroke:#0000ff;stroke-linecap:square;"/>
   </g>
   <g id="line2d_20">
    <path clip-path="url(#p9d51645ed2)" d="
M18 360.601
L27.6792 358.92
L34.1321 358.427
L37.3585 357.982
L40.5849 357.676
L43.8113 357.734
L50.2642 358.243
L59.9434 358.289
L76.0755 358.304
L79.3019 358.024
L85.7547 356.771
L88.9811 356.522
L92.2075 357
L98.6604 359.318
L101.887 359.944
L105.113 359.708
L108.34 358.929
L111.566 358.287
L114.792 358.27
L118.019 358.828
L124.472 360.24
L134.151 362.04
L137.377 362.15
L140.604 361.693
L147.057 360.235
L150.283 359.841
L156.736 359.504
L159.962 359.089
L163.189 358.341
L166.415 357.443
L169.642 356.734
L172.868 356.435
L176.094 356.631
L179.321 357.494
L182.547 359.171
L185.774 361.224
L189 362.571
L192.226 362.361
L198.679 359.236
L201.906 358.732
L205.132 359.865
L208.358 362.372
L211.585 365.301
L214.811 367.258
L218.038 367.122
L221.264 364.863
L224.491 361.618
L227.717 358.916
L230.943 357.77
L234.17 358.252
L237.396 359.611
L240.623 360.813
L243.849 361.155
L247.075 360.518
L250.302 359.215
L253.528 357.706
L256.755 356.331
L259.981 355.209
L263.208 354.383
L266.434 353.924
L272.887 353.618
L279.34 352.793
L282.566 352.751
L285.792 353.408
L289.019 354.742
L298.698 359.957
L301.925 360.893
L305.151 361.059
L308.377 360.455
L311.604 359.142
L318.057 355.675
L321.283 354.757
L324.509 354.996
L327.736 356.25
L330.962 357.988
L334.189 359.593
L337.415 360.598
L340.642 360.83
L343.868 360.447
L347.094 359.851
L350.321 359.484
L353.547 359.631
L356.774 360.289
L360 361.166
L363.226 361.789
L366.453 361.68
L369.679 360.625
L372.906 358.99
L376.132 357.766
L379.358 358.073
L382.585 360.397
L389.038 367.865
L392.264 369.881
L395.491 369.281
L398.717 366.45
L401.943 362.828
L405.17 359.928
L408.396 358.372
L411.623 357.677
L414.849 356.822
L418.075 355.114
L421.302 352.767
L424.528 350.8
L427.755 350.242
L430.981 351.301
L434.208 353.357
L437.434 355.656
L440.66 357.766
L443.887 359.447
L447.113 360.467
L450.34 360.699
L453.566 360.295
L460.019 359.091
L466.472 358.431
L472.925 357.505
L476.151 357.795
L479.377 359.481
L485.83 365.35
L489.057 366.947
L492.283 366.757
L498.736 364.228
L501.962 363.323
L508.415 361.741
L518.094 358.98
L521.321 358.128
L524.547 357.424
L527.774 357.144
L531 357.533
L534.226 358.557
L537.453 359.813
L540.679 360.695
L543.906 360.756
L547.132 359.972
L553.585 357.416
L556.811 356.468
L560.038 355.929
L566.491 355.393
L569.717 355.371
L572.943 355.817
L576.17 356.736
L579.396 357.786
L582.623 358.612
L589.075 359.695
L592.302 360.475
L595.528 361.426
L598.755 362.069
L601.981 361.861
L605.208 360.655
L608.434 358.9
L611.66 357.438
L614.887 357.014
L618.113 357.791
L624.566 360.789
L627.792 361.833
L631.019 362.331
L634.245 362.387
L637.472 362.088
L640.698 361.488
L650.377 358.998
L653.604 358.462
L656.83 358.286
L660.057 358.438
L666.509 359.023
L669.736 359.072
L672.962 358.845
L679.415 357.882
L682.642 357.268
L685.868 356.463
L689.094 355.387
L692.321 354.156
L695.547 353.055
L698.774 352.332
L702 352.019
L702 352.019" style="fill:none;stroke:#008000;stroke-linecap:square;"/>
   </g>
   <g id="line2d_21">
    <path clip-path="url(#p9d51645ed2)" d="
M18 360.645
L21.2264 360.284
L34.1321 358.055
L37.3585 357.652
L40.5849 357.403
L43.8113 357.349
L59.9434 357.829
L69.6226 357.771
L72.8491 357.673
L76.0755 357.445
L85.7547 356.227
L88.9811 356.259
L92.2075 356.789
L98.6604 358.6
L101.887 359.175
L105.113 359.257
L111.566 358.738
L114.792 358.781
L118.019 359.228
L121.245 359.987
L127.698 361.786
L130.925 362.536
L134.151 362.996
L137.377 363.047
L140.604 362.68
L159.962 358.67
L166.415 356.901
L169.642 356.252
L172.868 356.096
L176.094 356.616
L179.321 357.839
L185.774 361.199
L189 362.248
L192.226 362.364
L198.679 361.164
L201.906 361.315
L205.132 362.615
L211.585 367.104
L214.811 368.48
L218.038 368.262
L221.264 366.468
L224.491 363.812
L227.717 361.321
L230.943 359.798
L234.17 359.464
L237.396 359.943
L240.623 360.555
L243.849 360.689
L247.075 360.059
L250.302 358.736
L259.981 353.635
L263.208 352.38
L266.434 351.479
L269.66 350.849
L272.887 350.383
L276.113 350.054
L279.34 349.982
L282.566 350.384
L285.792 351.429
L289.019 353.113
L295.472 357.403
L298.698 359.234
L301.925 360.367
L305.151 360.593
L308.377 359.893
L311.604 358.465
L314.83 356.712
L318.057 355.173
L321.283 354.355
L324.509 354.533
L327.736 355.632
L334.189 358.919
L337.415 360.15
L340.642 360.761
L343.868 360.835
L350.321 360.571
L353.547 360.789
L360 361.853
L363.226 362.099
L366.453 361.775
L372.906 360.033
L376.132 359.808
L379.358 360.899
L382.585 363.439
L385.811 366.841
L389.038 369.973
L392.264 371.667
L395.491 371.285
L398.717 369.01
L405.17 362.259
L408.396 359.33
L411.623 356.9
L421.302 350.06
L424.528 348.441
L427.755 347.981
L430.981 348.881
L434.208 350.903
L440.66 356.151
L443.887 358.334
L447.113 359.786
L450.34 360.433
L453.566 360.402
L456.792 359.946
L466.472 358.173
L469.698 357.914
L472.925 358.204
L476.151 359.367
L479.377 361.505
L485.83 366.91
L489.057 368.671
L492.283 369.185
L495.509 368.618
L498.736 367.428
L514.868 360.46
L518.094 359.182
L521.321 358.116
L524.547 357.426
L527.774 357.273
L531 357.714
L537.453 359.594
L540.679 360.252
L543.906 360.26
L547.132 359.555
L550.358 358.335
L553.585 356.937
L556.811 355.667
L560.038 354.704
L563.264 354.105
L566.491 353.889
L569.717 354.089
L572.943 354.72
L576.17 355.705
L585.849 359.192
L592.302 361.271
L595.528 362.05
L598.755 362.332
L601.981 361.897
L605.208 360.789
L608.434 359.384
L611.66 358.256
L614.887 357.892
L618.113 358.448
L621.34 359.696
L624.566 361.182
L627.792 362.463
L631.019 363.263
L634.245 363.493
L637.472 363.193
L640.698 362.477
L650.377 359.495
L653.604 358.812
L656.83 358.467
L660.057 358.421
L666.509 358.655
L669.736 358.602
L672.962 358.298
L676.189 357.728
L679.415 356.907
L682.642 355.847
L685.868 354.558
L695.547 350.263
L698.774 349.274
L702 348.755
L702 348.755" style="fill:none;stroke:#ff0000;stroke-linecap:square;"/>
   </g>
   <g id="line2d_22">
    <path clip-path="url(#p9d51645ed2)" d="
M18 360.638
L21.2264 360.348
L24.4528 359.826
L34.1321 357.849
L37.3585 357.341
L40.5849 356.993
L43.8113 356.811
L50.2642 356.815
L59.9434 357.023
L66.3962 356.949
L72.8491 356.569
L82.5283 355.666
L85.7547 355.596
L88.9811 355.802
L92.2075 356.292
L101.887 358.277
L105.113 358.68
L114.792 359.573
L118.019 360.178
L121.245 361.004
L127.698 362.897
L130.925 363.664
L134.151 364.127
L137.377 364.214
L140.604 363.923
L143.83 363.318
L147.057 362.495
L153.509 360.517
L163.189 357.382
L166.415 356.597
L169.642 356.19
L172.868 356.309
L176.094 357.008
L179.321 358.2
L185.774 361.076
L189 362.203
L192.226 362.956
L198.679 364.063
L201.906 364.998
L205.132 366.373
L208.358 367.985
L211.585 369.395
L214.811 370.112
L218.038 369.821
L221.264 368.54
L230.943 362.855
L234.17 361.7
L237.396 361.029
L240.623 360.55
L243.849 359.916
L247.075 358.875
L250.302 357.355
L253.528 355.457
L259.981 351.353
L263.208 349.546
L266.434 348.069
L269.66 346.971
L272.887 346.283
L276.113 346.052
L279.34 346.352
L282.566 347.25
L285.792 348.758
L289.019 350.78
L295.472 355.375
L298.698 357.272
L301.925 358.485
L305.151 358.849
L308.377 358.386
L311.604 357.312
L314.83 355.994
L318.057 354.852
L321.283 354.249
L324.509 354.377
L327.736 355.213
L330.962 356.539
L334.189 358.033
L337.415 359.394
L340.642 360.436
L343.868 361.129
L350.321 361.899
L356.774 362.518
L360 362.73
L363.226 362.765
L369.679 362.495
L372.906 362.679
L376.132 363.524
L379.358 365.217
L382.585 367.637
L385.811 370.312
L389.038 372.554
L392.264 373.688
L395.491 373.305
L398.717 371.387
L401.943 368.265
L405.17 364.44
L411.623 356.441
L414.849 352.808
L418.075 349.66
L421.302 347.211
L424.528 345.713
L427.755 345.369
L430.981 346.228
L434.208 348.119
L437.434 350.678
L440.66 353.441
L443.887 355.965
L447.113 357.926
L450.34 359.169
L453.566 359.713
L456.792 359.709
L463.245 359.014
L466.472 358.861
L469.698 359.184
L472.925 360.175
L476.151 361.901
L479.377 364.237
L482.604 366.851
L485.83 369.287
L489.057 371.1
L492.283 372.004
L495.509 371.938
L498.736 371.038
L501.962 369.542
L505.189 367.694
L514.868 361.802
L518.094 360.163
L521.321 358.896
L524.547 358.108
L527.774 357.843
L531 358.043
L537.453 359.052
L540.679 359.321
L543.906 359.134
L547.132 358.425
L550.358 357.279
L556.811 354.514
L560.038 353.362
L563.264 352.604
L566.491 352.337
L569.717 352.591
L572.943 353.333
L576.17 354.476
L579.396 355.895
L585.849 359.004
L589.075 360.414
L592.302 361.537
L595.528 362.228
L598.755 362.385
L601.981 362.006
L605.208 361.234
L608.434 360.347
L611.66 359.68
L614.887 359.508
L618.113 359.94
L621.34 360.884
L627.792 363.258
L631.019 364.1
L634.245 364.45
L637.472 364.262
L640.698 363.607
L643.925 362.631
L650.377 360.46
L653.604 359.581
L656.83 358.949
L660.057 358.545
L669.736 357.64
L672.962 357.022
L676.189 356.103
L679.415 354.862
L682.642 353.325
L689.094 349.698
L692.321 347.887
L695.547 346.311
L698.774 345.146
L702 344.526
L702 344.526" style="fill:none;stroke:#00bfbf;stroke-linecap:square;"/>
   </g>
   <g id="line2d_23">
    <path clip-path="url(#p9d51645ed2)" d="
M18 360.32
L21.2264 360.072
L24.4528 359.611
L30.9057 358.315
L37.3585 357.024
L40.5849 356.527
L43.8113 356.164
L50.2642 355.795
L66.3962 355.412
L82.5283 354.555
L85.7547 354.666
L88.9811 354.964
L92.2075 355.438
L98.6604 356.746
L111.566 359.728
L118.019 361.485
L127.698 364.316
L130.925 365.009
L134.151 365.423
L137.377 365.497
L140.604 365.207
L143.83 364.573
L147.057 363.645
L150.283 362.499
L159.962 358.742
L163.189 357.762
L166.415 357.112
L169.642 356.883
L172.868 357.124
L176.094 357.822
L179.321 358.904
L182.547 360.252
L205.132 370.574
L208.358 371.766
L211.585 372.578
L214.811 372.844
L218.038 372.472
L221.264 371.482
L224.491 370.002
L230.943 366.353
L237.396 362.748
L243.849 359.2
L247.075 357.229
L250.302 355.05
L256.755 350.232
L259.981 347.821
L263.208 345.608
L266.434 343.747
L269.66 342.367
L272.887 341.572
L276.113 341.43
L279.34 341.966
L282.566 343.152
L285.792 344.892
L289.019 347.022
L295.472 351.519
L298.698 353.383
L301.925 354.719
L305.151 355.44
L308.377 355.577
L311.604 355.279
L318.057 354.321
L321.283 354.141
L324.509 354.375
L327.736 355.055
L330.962 356.113
L343.868 361.277
L347.094 362.247
L350.321 363.024
L353.547 363.632
L360 364.519
L363.226 364.933
L366.453 365.459
L369.679 366.225
L372.906 367.342
L376.132 368.859
L379.358 370.713
L382.585 372.7
L385.811 374.498
L389.038 375.722
L392.264 376.017
L395.491 375.143
L398.717 373.029
L401.943 369.788
L405.17 365.686
L414.849 351.96
L418.075 348.169
L421.302 345.287
L424.528 343.506
L427.755 342.907
L430.981 343.446
L434.208 344.949
L437.434 347.139
L443.887 352.236
L447.113 354.529
L450.34 356.384
L453.566 357.748
L456.792 358.69
L466.472 360.818
L469.698 361.989
L472.925 363.615
L476.151 365.678
L485.83 372.665
L489.057 374.364
L492.283 375.347
L495.509 375.505
L498.736 374.843
L501.962 373.467
L505.189 371.551
L511.642 366.948
L514.868 364.678
L518.094 362.663
L521.321 361.023
L524.547 359.818
L527.774 359.038
L531 358.603
L540.679 357.86
L543.906 357.295
L547.132 356.441
L550.358 355.334
L556.811 352.86
L560.038 351.827
L563.264 351.145
L566.491 350.927
L569.717 351.224
L572.943 352.024
L576.17 353.258
L579.396 354.805
L585.849 358.22
L589.075 359.758
L592.302 360.992
L595.528 361.833
L598.755 362.258
L601.981 362.32
L611.66 361.768
L614.887 361.876
L618.113 362.282
L621.34 362.95
L627.792 364.549
L631.019 365.142
L634.245 365.406
L637.472 365.276
L640.698 364.759
L643.925 363.928
L650.377 361.778
L656.83 359.655
L669.736 355.798
L672.962 354.521
L676.189 352.983
L679.415 351.174
L682.642 349.135
L689.094 344.769
L692.321 342.733
L695.547 341.016
L698.774 339.772
L702 339.119
L702 339.119" style="fill:none;stroke:#bf00bf;stroke-linecap:square;"/>
   </g>
   <g id="line2d_24">
    <path clip-path="url(#p9d51645ed2)" d="
M18 359.445
L21.2264 359.248
L24.4528 358.873
L30.9057 357.744
L40.5849 355.823
L47.0377 354.816
L53.4906 354.114
L63.1698 353.408
L72.8491 352.927
L79.3019 352.9
L82.5283 353.053
L85.7547 353.347
L88.9811 353.794
L92.2075 354.395
L95.434 355.143
L101.887 357.011
L108.34 359.239
L121.245 363.965
L124.472 364.976
L127.698 365.808
L130.925 366.402
L134.151 366.709
L137.377 366.695
L140.604 366.353
L143.83 365.703
L147.057 364.792
L153.509 362.506
L156.736 361.334
L159.962 360.291
L163.189 359.482
L166.415 358.995
L169.642 358.894
L172.868 359.212
L176.094 359.948
L179.321 361.068
L182.547 362.518
L185.774 364.224
L192.226 368.069
L198.679 371.906
L201.906 373.594
L205.132 375
L208.358 376.034
L211.585 376.612
L214.811 376.679
L218.038 376.207
L221.264 375.207
L224.491 373.722
L227.717 371.819
L230.943 369.573
L234.17 367.06
L237.396 364.34
L243.849 358.451
L256.755 346.058
L259.981 343.246
L263.208 340.764
L266.434 338.729
L269.66 337.248
L272.887 336.396
L276.113 336.212
L279.34 336.683
L282.566 337.75
L285.792 339.302
L289.019 341.191
L295.472 345.292
L298.698 347.179
L301.925 348.793
L305.151 350.077
L308.377 351.037
L311.604 351.732
L321.283 353.293
L324.509 353.998
L327.736 354.905
L330.962 356.023
L334.189 357.318
L350.321 364.388
L366.453 370.662
L372.906 373.713
L379.358 376.823
L382.585 378.059
L385.811 378.821
L389.038 378.908
L392.264 378.152
L395.491 376.451
L398.717 373.792
L401.943 370.265
L405.17 366.055
L414.849 352.181
L418.075 348.198
L421.302 344.995
L424.528 342.746
L427.755 341.531
L430.981 341.335
L434.208 342.053
L437.434 343.515
L440.66 345.512
L447.113 350.268
L453.566 355.005
L460.019 359.303
L466.472 363.513
L472.925 368.089
L479.377 372.898
L482.604 375.132
L485.83 377.048
L489.057 378.49
L492.283 379.333
L495.509 379.499
L498.736 378.971
L501.962 377.799
L505.189 376.085
L508.415 373.974
L521.321 364.722
L524.547 362.812
L527.774 361.163
L531 359.748
L537.453 357.375
L556.811 350.825
L560.038 350.102
L563.264 349.7
L566.491 349.687
L569.717 350.096
L572.943 350.918
L576.17 352.101
L579.396 353.559
L589.075 358.438
L592.302 359.866
L595.528 361.071
L598.755 362.034
L601.981 362.775
L608.434 363.809
L618.113 365.156
L624.566 366.133
L627.792 366.523
L631.019 366.753
L634.245 366.759
L637.472 366.497
L640.698 365.952
L643.925 365.134
L647.151 364.076
L650.377 362.822
L653.604 361.412
L660.057 358.236
L663.283 356.48
L666.509 354.595
L669.736 352.56
L672.962 350.362
L679.415 345.521
L685.868 340.441
L689.094 338.05
L692.321 335.926
L695.547 334.194
L698.774 332.969
L702 332.334
L702 332.334" style="fill:none;stroke:#bfbf00;stroke-linecap:square;"/>
   </g>
   <g id="line2d_25">
    <path clip-path="url(#p9d51645ed2)" d="
M18 357.681
L21.2264 357.528
L24.4528 357.23
L30.9057 356.276
L40.5849 354.359
L50.2642 352.491
L56.717 351.509
L63.1698 350.826
L69.6226 350.505
L72.8491 350.505
L76.0755 350.629
L79.3019 350.888
L82.5283 351.295
L85.7547 351.857
L88.9811 352.578
L92.2075 353.457
L95.434 354.487
L101.887 356.931
L111.566 361.146
L118.019 363.861
L121.245 365.051
L124.472 366.069
L127.698 366.872
L130.925 367.431
L134.151 367.725
L137.377 367.751
L140.604 367.522
L143.83 367.068
L150.283 365.701
L156.736 364.202
L159.962 363.607
L163.189 363.218
L166.415 363.1
L169.642 363.302
L172.868 363.85
L176.094 364.75
L179.321 365.982
L182.547 367.506
L185.774 369.26
L198.679 376.865
L201.906 378.423
L205.132 379.652
L208.358 380.469
L211.585 380.81
L214.811 380.628
L218.038 379.896
L221.264 378.608
L224.491 376.779
L227.717 374.441
L230.943 371.644
L234.17 368.448
L237.396 364.926
L243.849 357.231
L250.302 349.285
L253.528 345.465
L256.755 341.885
L259.981 338.642
L263.208 335.831
L266.434 333.529
L269.66 331.794
L272.887 330.663
L276.113 330.143
L279.34 330.21
L282.566 330.814
L285.792 331.878
L289.019 333.309
L292.245 335.006
L298.698 338.795
L305.151 342.587
L311.604 346.06
L321.283 350.802
L327.736 354.012
L334.189 357.494
L340.642 361.276
L350.321 367.301
L360 373.383
L366.453 377.2
L369.679 378.916
L372.906 380.414
L376.132 381.608
L379.358 382.398
L382.585 382.682
L385.811 382.366
L389.038 381.374
L392.264 379.664
L395.491 377.235
L398.717 374.135
L401.943 370.462
L405.17 366.362
L414.849 353.441
L418.075 349.627
L421.302 346.378
L424.528 343.832
L427.755 342.08
L430.981 341.161
L434.208 341.064
L437.434 341.734
L440.66 343.084
L443.887 345.009
L447.113 347.394
L450.34 350.131
L453.566 353.119
L460.019 359.526
L469.698 369.285
L472.925 372.353
L476.151 375.223
L479.377 377.817
L482.604 380.058
L485.83 381.867
L489.057 383.173
L492.283 383.925
L495.509 384.093
L498.736 383.679
L501.962 382.709
L505.189 381.241
L508.415 379.354
L511.642 377.139
L518.094 372.126
L527.774 364.42
L531 362.035
L534.226 359.792
L537.453 357.705
L540.679 355.784
L543.906 354.037
L547.132 352.481
L550.358 351.136
L553.585 350.032
L556.811 349.2
L560.038 348.671
L563.264 348.471
L566.491 348.614
L569.717 349.099
L572.943 349.909
L576.17 351.008
L579.396 352.346
L585.849 355.48
L595.528 360.366
L598.755 361.84
L601.981 363.187
L605.208 364.396
L608.434 365.465
L611.66 366.393
L614.887 367.18
L618.113 367.821
L621.34 368.307
L624.566 368.621
L627.792 368.74
L631.019 368.642
L634.245 368.3
L637.472 367.697
L640.698 366.817
L643.925 365.654
L647.151 364.207
L650.377 362.483
L653.604 360.496
L656.83 358.26
L660.057 355.795
L663.283 353.125
L669.736 347.291
L682.642 334.975
L685.868 332.165
L689.094 329.635
L692.321 327.477
L695.547 325.774
L698.774 324.597
L702 323.995
L702 323.995" style="fill:none;stroke:#000000;stroke-linecap:square;"/>
   </g>
   <g id="line2d_26">
    <path clip-path="url(#p9d51645ed2)" d="
M18 354.399
L21.2264 354.277
L27.6792 353.69
L34.1321 352.729
L43.8113 350.918
L50.2642 349.726
L56.717 348.755
L59.9434 348.402
L63.1698 348.162
L66.3962 348.051
L69.6226 348.082
L72.8491 348.266
L76.0755 348.612
L79.3019 349.124
L82.5283 349.804
L85.7547 350.649
L88.9811 351.652
L92.2075 352.8
L98.6604 355.46
L108.34 359.957
L114.792 362.905
L118.019 364.257
L121.245 365.485
L124.472 366.562
L127.698 367.469
L130.925 368.195
L134.151 368.74
L137.377 369.111
L140.604 369.329
L147.057 369.43
L156.736 369.392
L159.962 369.521
L163.189 369.795
L166.415 370.247
L169.642 370.9
L172.868 371.762
L176.094 372.829
L179.321 374.078
L185.774 376.97
L192.226 379.999
L195.453 381.386
L198.679 382.583
L201.906 383.511
L205.132 384.098
L208.358 384.279
L211.585 383.999
L214.811 383.219
L218.038 381.914
L221.264 380.078
L224.491 377.72
L227.717 374.868
L230.943 371.567
L234.17 367.876
L237.396 363.868
L243.849 355.247
L250.302 346.462
L253.528 342.255
L256.755 338.3
L259.981 334.681
L263.208 331.475
L266.434 328.741
L269.66 326.525
L272.887 324.854
L276.113 323.74
L279.34 323.173
L282.566 323.132
L285.792 323.581
L289.019 324.473
L292.245 325.753
L295.472 327.364
L298.698 329.25
L301.925 331.355
L308.377 336.038
L314.83 341.119
L324.509 349.14
L334.189 357.473
L350.321 371.495
L356.774 376.654
L360 378.984
L363.226 381.079
L366.453 382.88
L369.679 384.329
L372.906 385.366
L376.132 385.935
L379.358 385.989
L382.585 385.491
L385.811 384.423
L389.038 382.781
L392.264 380.589
L395.491 377.889
L398.717 374.752
L401.943 371.269
L408.396 363.723
L414.849 356.277
L418.075 352.929
L421.302 349.995
L424.528 347.579
L427.755 345.763
L430.981 344.604
L434.208 344.132
L437.434 344.353
L440.66 345.246
L443.887 346.77
L447.113 348.863
L450.34 351.451
L453.566 354.445
L456.792 357.753
L463.245 364.913
L469.698 372.132
L472.925 375.525
L476.151 378.657
L479.377 381.449
L482.604 383.834
L485.83 385.755
L489.057 387.168
L492.283 388.045
L495.509 388.375
L498.736 388.161
L501.962 387.422
L505.189 386.194
L508.415 384.524
L511.642 382.468
L514.868 380.092
L518.094 377.467
L524.547 371.759
L534.226 363.076
L537.453 360.395
L540.679 357.906
L543.906 355.651
L547.132 353.668
L550.358 351.987
L553.585 350.631
L556.811 349.617
L560.038 348.956
L563.264 348.65
L566.491 348.691
L569.717 349.066
L572.943 349.751
L576.17 350.716
L579.396 351.923
L582.623 353.329
L589.075 356.552
L598.755 361.691
L605.208 364.797
L608.434 366.139
L611.66 367.296
L614.887 368.24
L618.113 368.947
L621.34 369.392
L624.566 369.555
L627.792 369.417
L631.019 368.963
L634.245 368.181
L637.472 367.062
L640.698 365.603
L643.925 363.803
L647.151 361.671
L650.377 359.221
L653.604 356.473
L656.83 353.457
L660.057 350.208
L666.509 343.201
L676.189 332.301
L679.415 328.843
L682.642 325.599
L685.868 322.645
L689.094 320.054
L692.321 317.892
L695.547 316.216
L698.774 315.073
L702 314.493
L702 314.493" style="fill:none;stroke:#0000ff;stroke-linecap:square;"/>
   </g>
   <g id="line2d_27">
    <path clip-path="url(#p9d51645ed2)" d="
M18 348.804
L24.4528 348.574
L30.9057 348.077
L40.5849 347.033
L50.2642 346.031
L56.717 345.64
L59.9434 345.583
L63.1698 345.64
L66.3962 345.823
L69.6226 346.144
L72.8491 346.61
L76.0755 347.225
L79.3019 347.988
L82.5283 348.898
L85.7547 349.948
L92.2075 352.421
L98.6604 355.285
L108.34 359.962
L118.019 364.575
L124.472 367.37
L130.925 369.842
L137.377 371.986
L143.83 373.867
L166.415 380.082
L185.774 386.032
L189 386.811
L192.226 387.426
L195.453 387.83
L198.679 387.979
L201.906 387.827
L205.132 387.335
L208.358 386.47
L211.585 385.204
L214.811 383.522
L218.038 381.416
L221.264 378.889
L224.491 375.96
L227.717 372.654
L230.943 369.01
L234.17 365.079
L240.623 356.593
L250.302 343.363
L253.528 339.121
L256.755 335.087
L259.981 331.33
L263.208 327.912
L266.434 324.884
L269.66 322.293
L272.887 320.171
L276.113 318.543
L279.34 317.424
L282.566 316.815
L285.792 316.712
L289.019 317.1
L292.245 317.959
L295.472 319.26
L298.698 320.972
L301.925 323.06
L305.151 325.486
L308.377 328.211
L311.604 331.197
L314.83 334.404
L321.283 341.33
L327.736 348.692
L340.642 363.548
L347.094 370.434
L350.321 373.601
L353.547 376.528
L356.774 379.172
L360 381.494
L363.226 383.453
L366.453 385.015
L369.679 386.148
L372.906 386.83
L376.132 387.045
L379.358 386.786
L382.585 386.059
L385.811 384.879
L389.038 383.276
L392.264 381.288
L395.491 378.971
L398.717 376.386
L405.17 370.712
L411.623 364.923
L414.849 362.202
L418.075 359.709
L421.302 357.523
L424.528 355.71
L427.755 354.329
L430.981 353.422
L434.208 353.02
L437.434 353.136
L440.66 353.767
L443.887 354.897
L447.113 356.492
L450.34 358.508
L453.566 360.884
L456.792 363.555
L463.245 369.472
L469.698 375.608
L472.925 378.553
L476.151 381.31
L479.377 383.812
L482.604 385.994
L485.83 387.805
L489.057 389.203
L492.283 390.158
L495.509 390.653
L498.736 390.682
L501.962 390.251
L505.189 389.379
L508.415 388.092
L511.642 386.429
L514.868 384.434
L518.094 382.161
L521.321 379.665
L527.774 374.251
L537.453 365.993
L540.679 363.435
L543.906 361.059
L547.132 358.908
L550.358 357.017
L553.585 355.414
L556.811 354.12
L560.038 353.147
L563.264 352.498
L566.491 352.171
L569.717 352.154
L572.943 352.43
L576.17 352.974
L579.396 353.755
L582.623 354.739
L585.849 355.885
L592.302 358.491
L601.981 362.491
L605.208 363.662
L608.434 364.678
L611.66 365.497
L614.887 366.082
L618.113 366.399
L621.34 366.419
L624.566 366.118
L627.792 365.477
L631.019 364.482
L634.245 363.127
L637.472 361.411
L640.698 359.341
L643.925 356.93
L647.151 354.198
L650.377 351.174
L653.604 347.893
L656.83 344.395
L663.283 336.945
L672.962 325.508
L676.189 321.879
L679.415 318.452
L682.642 315.29
L685.868 312.453
L689.094 309.996
L692.321 307.969
L695.547 306.41
L698.774 305.354
L702 304.82
L702 304.82" style="fill:none;stroke:#008000;stroke-linecap:square;"/>
   </g>
   <g id="line2d_28">
    <path clip-path="url(#p9d51645ed2)" d="
M18 341.006
L40.5849 341.054
L47.0377 341.283
L53.4906 341.75
L59.9434 342.532
L66.3962 343.696
L72.8491 345.287
L79.3019 347.325
L85.7547 349.799
L92.2075 352.666
L98.6604 355.864
L105.113 359.311
L114.792 364.752
L130.925 373.847
L140.604 378.964
L147.057 382.134
L153.509 385.058
L159.962 387.678
L166.415 389.916
L169.642 390.86
L172.868 391.666
L176.094 392.318
L179.321 392.796
L182.547 393.081
L185.774 393.152
L189 392.99
L192.226 392.575
L195.453 391.889
L198.679 390.917
L201.906 389.646
L205.132 388.067
L208.358 386.173
L211.585 383.965
L214.811 381.448
L218.038 378.632
L221.264 375.535
L224.491 372.177
L227.717 368.587
L234.17 360.851
L243.849 348.49
L250.302 340.315
L253.528 336.403
L256.755 332.677
L259.981 329.185
L263.208 325.973
L266.434 323.084
L269.66 320.555
L272.887 318.42
L276.113 316.704
L279.34 315.429
L282.566 314.607
L285.792 314.247
L289.019 314.35
L292.245 314.911
L295.472 315.919
L298.698 317.357
L301.925 319.202
L305.151 321.428
L308.377 324.003
L311.604 326.891
L314.83 330.053
L318.057 333.447
L324.509 340.757
L340.642 359.874
L343.868 363.468
L347.094 366.881
L350.321 370.075
L353.547 373.015
L356.774 375.667
L360 378.006
L363.226 380.008
L366.453 381.658
L369.679 382.945
L372.906 383.865
L376.132 384.422
L379.358 384.625
L382.585 384.49
L385.811 384.043
L389.038 383.31
L392.264 382.329
L395.491 381.139
L401.943 378.313
L414.849 372.272
L418.075 370.97
L421.302 369.841
L424.528 368.922
L427.755 368.244
L430.981 367.831
L434.208 367.699
L437.434 367.857
L440.66 368.306
L443.887 369.038
L447.113 370.035
L450.34 371.275
L453.566 372.728
L456.792 374.357
L463.245 377.977
L472.925 383.614
L476.151 385.356
L479.377 386.954
L482.604 388.367
L485.83 389.56
L489.057 390.501
L492.283 391.168
L495.509 391.542
L498.736 391.614
L501.962 391.38
L505.189 390.845
L508.415 390.02
L511.642 388.921
L514.868 387.572
L518.094 386.002
L521.321 384.241
L527.774 380.299
L543.906 369.808
L547.132 367.9
L550.358 366.129
L553.585 364.519
L556.811 363.089
L560.038 361.851
L563.264 360.814
L566.491 359.978
L569.717 359.341
L572.943 358.893
L576.17 358.619
L579.396 358.499
L585.849 358.626
L605.208 359.65
L608.434 359.55
L611.66 359.284
L614.887 358.822
L618.113 358.141
L621.34 357.219
L624.566 356.04
L627.792 354.592
L631.019 352.87
L634.245 350.873
L637.472 348.609
L640.698 346.089
L643.925 343.33
L647.151 340.355
L653.604 333.879
L660.057 326.946
L669.736 316.457
L672.962 313.129
L676.189 309.967
L679.415 307.018
L682.642 304.326
L685.868 301.935
L689.094 299.881
L692.321 298.196
L695.547 296.909
L698.774 296.039
L702 295.6
L702 295.6" style="fill:none;stroke:#ff0000;stroke-linecap:square;"/>
   </g>
   <g id="line2d_29">
    <path clip-path="url(#p9d51645ed2)" d="
M18 332.993
L24.4528 333.192
L30.9057 333.663
L37.3585 334.42
L43.8113 335.478
L50.2642 336.857
L56.717 338.579
L63.1698 340.658
L69.6226 343.105
L76.0755 345.917
L82.5283 349.082
L88.9811 352.574
L95.434 356.356
L101.887 360.377
L111.566 366.709
L127.698 377.398
L134.151 381.45
L140.604 385.22
L147.057 388.601
L150.283 390.112
L153.509 391.484
L156.736 392.704
L159.962 393.758
L163.189 394.633
L166.415 395.317
L169.642 395.797
L172.868 396.062
L176.094 396.102
L179.321 395.907
L182.547 395.471
L185.774 394.786
L189 393.849
L192.226 392.656
L195.453 391.207
L198.679 389.504
L201.906 387.553
L205.132 385.359
L208.358 382.934
L211.585 380.289
L214.811 377.441
L218.038 374.408
L224.491 367.872
L230.943 360.879
L247.075 342.984
L253.528 336.355
L256.755 333.287
L259.981 330.426
L263.208 327.8
L266.434 325.435
L269.66 323.357
L272.887 321.586
L276.113 320.139
L279.34 319.031
L282.566 318.273
L285.792 317.869
L289.019 317.823
L292.245 318.132
L295.472 318.79
L298.698 319.787
L301.925 321.11
L305.151 322.74
L308.377 324.656
L311.604 326.836
L314.83 329.251
L318.057 331.873
L324.509 337.612
L330.962 343.79
L343.868 356.395
L350.321 362.32
L353.547 365.094
L356.774 367.711
L360 370.156
L363.226 372.413
L366.453 374.47
L369.679 376.322
L372.906 377.965
L376.132 379.399
L379.358 380.628
L382.585 381.659
L385.811 382.504
L389.038 383.175
L392.264 383.688
L395.491 384.062
L401.943 384.471
L408.396 384.573
L424.528 384.588
L430.981 384.868
L437.434 385.439
L443.887 386.328
L450.34 387.51
L456.792 388.917
L472.925 392.658
L479.377 393.875
L485.83 394.724
L489.057 394.975
L492.283 395.093
L495.509 395.07
L498.736 394.9
L501.962 394.58
L505.189 394.107
L508.415 393.484
L511.642 392.715
L514.868 391.806
L518.094 390.767
L524.547 388.344
L531 385.547
L537.453 382.498
L563.264 369.964
L572.943 365.731
L585.849 360.45
L595.528 356.427
L601.981 353.519
L608.434 350.304
L614.887 346.689
L621.34 342.606
L627.792 338.023
L634.245 332.952
L640.698 327.452
L647.151 321.63
L663.283 306.738
L669.736 301.181
L672.962 298.599
L676.189 296.184
L679.415 293.963
L682.642 291.96
L685.868 290.197
L689.094 288.696
L692.321 287.473
L695.547 286.543
L698.774 285.917
L702 285.602
L702 285.602" style="fill:none;stroke:#00bfbf;stroke-linecap:square;"/>
   </g>
   <g id="line2d_30">
    <path clip-path="url(#p9d51645ed2)" d="
M18 328.763
L21.2264 328.877
L24.4528 329.105
L27.6792 329.447
L30.9057 329.903
L37.3585 331.15
L43.8113 332.837
L50.2642 334.953
L56.717 337.478
L63.1698 340.387
L69.6226 343.651
L76.0755 347.232
L82.5283 351.087
L88.9811 355.162
L98.6604 361.548
L114.792 372.307
L121.245 376.404
L127.698 380.248
L134.151 383.745
L140.604 386.805
L143.83 388.143
L147.057 389.338
L150.283 390.381
L153.509 391.263
L156.736 391.976
L159.962 392.511
L163.189 392.862
L166.415 393.023
L169.642 392.99
L172.868 392.76
L176.094 392.329
L179.321 391.698
L182.547 390.868
L185.774 389.839
L189 388.617
L192.226 387.205
L195.453 385.611
L198.679 383.842
L201.906 381.909
L205.132 379.821
L211.585 375.234
L218.038 370.196
L224.491 364.842
L243.849 348.406
L250.302 343.336
L256.755 338.731
L259.981 336.647
L263.208 334.73
L266.434 332.994
L269.66 331.452
L272.887 330.116
L276.113 328.995
L279.34 328.096
L282.566 327.426
L285.792 326.988
L289.019 326.784
L292.245 326.813
L295.472 327.074
L298.698 327.562
L301.925 328.272
L305.151 329.195
L308.377 330.322
L311.604 331.643
L314.83 333.146
L318.057 334.816
L321.283 336.64
L327.736 340.687
L334.189 345.157
L340.642 349.917
L366.453 369.38
L372.906 373.844
L379.358 378.008
L385.811 381.836
L392.264 385.313
L398.717 388.439
L405.17 391.227
L411.623 393.699
L418.075 395.882
L424.528 397.805
L430.981 399.492
L437.434 400.963
L443.887 402.227
L450.34 403.29
L456.792 404.143
L463.245 404.773
L469.698 405.16
L476.151 405.276
L482.604 405.098
L489.057 404.597
L495.509 403.753
L501.962 402.549
L508.415 400.975
L514.868 399.029
L521.321 396.715
L527.774 394.046
L534.226 391.036
L540.679 387.707
L547.132 384.079
L553.585 380.175
L560.038 376.013
L566.491 371.611
L572.943 366.979
L579.396 362.129
L585.849 357.068
L592.302 351.802
L601.981 343.543
L611.66 334.901
L624.566 322.954
L640.698 307.912
L647.151 302.098
L653.604 296.537
L660.057 291.332
L666.509 286.587
L669.736 284.418
L672.962 282.402
L676.189 280.55
L679.415 278.874
L682.642 277.383
L685.868 276.087
L689.094 274.994
L692.321 274.111
L695.547 273.443
L698.774 272.995
L702 272.771
L702 272.771" style="fill:none;stroke:#bf00bf;stroke-linecap:square;"/>
   </g>
   <g id="line2d_31">
    <path clip-path="url(#p9d51645ed2)" d="
M18 360.689
L21.2264 359.235
L24.4528 358.323
L27.6792 358.581
L30.9057 359.336
L34.1321 359.473
L37.3585 358.38
L40.5849 357.612
L43.8113 358.244
L47.0377 359.058
L50.2642 359.078
L53.4906 358.637
L56.717 358.409
L63.1698 359.082
L69.6226 358.269
L72.8491 358.638
L76.0755 359.207
L79.3019 359.063
L88.9811 357.258
L92.2075 357.281
L98.6604 359.824
L101.887 360.39
L105.113 360.09
L108.34 358.717
L111.566 357.631
L114.792 358.096
L118.019 359.086
L121.245 359.639
L124.472 359.702
L127.698 359.363
L130.925 359.647
L134.151 360.788
L137.377 361.205
L143.83 359.389
L147.057 359.152
L153.509 359.24
L159.962 359.497
L163.189 359.165
L166.415 358.098
L169.642 357.31
L172.868 357.94
L176.094 358.326
L179.321 357.249
L182.547 357.634
L185.774 360.543
L189 362.743
L192.226 362.083
L195.453 359.507
L198.679 357.569
L201.906 357.589
L205.132 358.386
L208.358 359.415
L211.585 361.945
L214.811 364.773
L218.038 364.786
L224.491 359.125
L227.717 357.492
L230.943 356.863
L234.17 357.808
L237.396 359.875
L240.623 360.823
L247.075 360.176
L250.302 359.237
L253.528 357.993
L256.755 357.681
L259.981 357.716
L266.434 356.174
L269.66 356.863
L272.887 357.75
L276.113 357.018
L279.34 355.864
L282.566 355.779
L285.792 356.35
L292.245 357.821
L295.472 358.883
L298.698 360.109
L301.925 360.429
L305.151 360.058
L308.377 360.073
L311.604 359.815
L314.83 358.505
L318.057 356.908
L321.283 356.071
L324.509 356.528
L327.736 357.704
L334.189 359.759
L337.415 360.428
L340.642 360.279
L350.321 358.666
L353.547 358.72
L363.226 360.584
L366.453 361.016
L369.679 360.722
L372.906 359.008
L376.132 356.973
L379.358 356.522
L382.585 358.108
L385.811 360.876
L389.038 364.018
L392.264 366.116
L395.491 365.494
L398.717 362.484
L401.943 359.217
L405.17 357.591
L408.396 357.901
L411.623 358.895
L414.849 359.306
L418.075 358.678
L421.302 356.518
L424.528 353.834
L427.755 353.469
L430.981 355.624
L434.208 357.29
L437.434 357.691
L440.66 358.504
L443.887 359.746
L447.113 360.368
L450.34 360.263
L453.566 359.709
L456.792 358.959
L460.019 358.608
L466.472 359.152
L469.698 359.093
L472.925 358.282
L476.151 356.981
L479.377 357.17
L482.604 360.001
L485.83 363.51
L489.057 364.632
L492.283 362.831
L495.509 360.689
L498.736 360.243
L501.962 360.884
L505.189 361.009
L511.642 359.415
L518.094 359.192
L521.321 358.747
L524.547 358.101
L527.774 357.651
L531 357.733
L534.226 358.463
L537.453 359.651
L540.679 360.649
L543.906 360.565
L550.358 358.795
L556.811 357.416
L560.038 357.458
L563.264 358.142
L566.491 357.787
L569.717 356.76
L572.943 357.001
L576.17 358.157
L579.396 358.962
L582.623 359.279
L585.849 359.184
L589.075 358.833
L592.302 358.995
L598.755 361.186
L601.981 361.18
L605.208 360.338
L608.434 358.858
L611.66 357.192
L614.887 356.799
L618.113 358.001
L621.34 359.465
L624.566 360.353
L627.792 360.592
L631.019 360.444
L637.472 360.589
L653.604 358.427
L656.83 358.396
L666.509 359.184
L669.736 359.341
L672.962 359.185
L676.189 358.701
L679.415 358.425
L682.642 358.469
L685.868 358.352
L689.094 357.848
L695.547 356.097
L698.774 355.824
L702 356.302
L702 356.302" style="fill:none;stroke:#bfbf00;stroke-dasharray:6.000000,6.000000;stroke-dashoffset:0.0;"/>
   </g>
   <g id="line2d_32">
    <path clip-path="url(#p9d51645ed2)" d="
M18 332.652
L21.2264 332.766
L24.4528 332.995
L30.9057 333.789
L37.3585 335.022
L43.8113 336.673
L50.2642 338.715
L56.717 341.113
L63.1698 343.828
L69.6226 346.815
L76.0755 350.02
L85.7547 355.111
L108.34 367.21
L114.792 370.426
L121.245 373.416
L127.698 376.119
L134.151 378.475
L140.604 380.433
L143.83 381.249
L147.057 381.95
L150.283 382.531
L153.509 382.99
L156.736 383.323
L159.962 383.528
L163.189 383.604
L166.415 383.55
L169.642 383.366
L172.868 383.052
L176.094 382.611
L179.321 382.044
L182.547 381.354
L189 379.622
L195.453 377.455
L201.906 374.903
L208.358 372.027
L214.811 368.898
L224.491 363.898
L240.623 355.452
L247.075 352.286
L253.528 349.366
L259.981 346.768
L266.434 344.56
L269.66 343.622
L272.887 342.803
L276.113 342.108
L279.34 341.543
L282.566 341.111
L285.792 340.816
L289.019 340.66
L292.245 340.644
L295.472 340.771
L298.698 341.039
L301.925 341.448
L305.151 341.997
L308.377 342.682
L311.604 343.501
L314.83 344.45
L318.057 345.524
L324.509 348.03
L330.962 350.972
L337.415 354.296
L343.868 357.944
L350.321 361.853
L360 368.065
L392.264 389.256
L398.717 393.166
L405.17 396.858
L411.623 400.296
L418.075 403.448
L424.528 406.286
L430.981 408.785
L437.434 410.927
L443.887 412.694
L450.34 414.07
L456.792 415.044
L463.245 415.604
L469.698 415.742
L476.151 415.452
L482.604 414.726
L489.057 413.562
L495.509 411.957
L501.962 409.91
L508.415 407.423
L514.868 404.501
L521.321 401.15
L527.774 397.381
L534.226 393.204
L540.679 388.635
L547.132 383.693
L553.585 378.398
L560.038 372.776
L566.491 366.856
L572.943 360.67
L582.623 350.974
L592.302 340.899
L627.792 303.484
L634.245 297.108
L640.698 291.024
L647.151 285.296
L653.604 279.987
L660.057 275.16
L663.283 272.945
L666.509 270.872
L669.736 268.948
L672.962 267.178
L676.189 265.568
L679.415 264.123
L682.642 262.848
L685.868 261.748
L689.094 260.825
L692.321 260.084
L695.547 259.525
L698.774 259.152
L702 258.965
L702 258.965" style="fill:none;stroke:#000000;stroke-dasharray:6.000000,6.000000;stroke-dashoffset:0.0;"/>
   </g>
   <g id="patch_6">
    <path d="
M18 421.2
L18 234.655" style="fill:none;stroke:#000000;stroke-linecap:square;stroke-linejoin:miter;"/>
   </g>
   <g id="patch_7">
    <path d="
M18 421.2
L702 421.2" style="fill:none;stroke:#000000;stroke-linecap:square;stroke-linejoin:miter;"/>
   </g>
   <g id="matplotlib.axis_3">
    <g id="xtick_6"/>
    <g id="xtick_7"/>
    <g id="xtick_8"/>
    <g id="xtick_9"/>
    <g id="xtick_10"/>
   </g>
   <g id="matplotlib.axis_4">
    <g id="ytick_7"/>
    <g id="ytick_8"/>
    <g id="ytick_9"/>
    <g id="ytick_10"/>
    <g id="ytick_11"/>
    <g id="ytick_12"/>
    <g id="ytick_13"/>
   </g>
  </g>
 </g>
 <defs>
  <clipPath id="p953c1481b7">
   <rect height="186.545454545" width="684.0" x="18.0" y="10.8"/>
  </clipPath>
  <clipPath id="p9d51645ed2">
   <rect height="186.545454545" width="684.0" x="18.0" y="234.654545455"/>
  </clipPath>
 </defs>
</svg>
