<?xml version="1.0" encoding="UTF-8" standalone="no"?>
<svg
   xmlns:dc="http://purl.org/dc/elements/1.1/"
   xmlns:cc="http://creativecommons.org/ns#"
   xmlns:rdf="http://www.w3.org/1999/02/22-rdf-syntax-ns#"
   xmlns:svg="http://www.w3.org/2000/svg"
   xmlns="http://www.w3.org/2000/svg"
   id="svg2"
   version="1.1"
   xml:space="preserve"
   width="145.27559"
   height="145.27501"
   viewBox="0 0 145.27559 145.27501"><metadata
     id="metadata8"><rdf:RDF><cc:Work
         rdf:about=""><dc:format>image/svg+xml</dc:format><dc:type
           rdf:resource="http://purl.org/dc/dcmitype/StillImage" /><dc:title></dc:title></cc:Work></rdf:RDF></metadata><defs
     id="defs6"><clipPath
       clipPathUnits="userSpaceOnUse"
       id="clipPath12"><path
         d="m -319.72952,-59.630089 435.53267,0 0,212.377719 -435.53267,0 0,-212.377719 z"
         id="path14" /></clipPath></defs><g
     id="g10"
     transform="matrix(1.25,0,0,-1.25,1.7716537,143.50335)"
     clip-path="url(#clipPath12)"><path
       d="M 0,0 0,56.692913"
       style="fill:none;stroke:#000000;stroke-width:0.283465;stroke-linecap:butt;stroke-linejoin:miter;stroke-miterlimit:10;stroke-dasharray:none;stroke-opacity:1"
       id="path16" /><path
       d="M 0,0 5.967675,57.095002"
       style="fill:none;stroke:#000000;stroke-width:0.283465;stroke-linecap:butt;stroke-linejoin:miter;stroke-miterlimit:10;stroke-dasharray:none;stroke-opacity:1"
       id="path18" /><path
       d="M 5.967675,1.524038 11.93535,58.384271"
       style="fill:none;stroke:#000000;stroke-width:0.283465;stroke-linecap:butt;stroke-linejoin:miter;stroke-miterlimit:10;stroke-dasharray:none;stroke-opacity:1"
       id="path20" /><path
       d="m 5.967675,1.524038 11.93535,58.863445"
       style="fill:none;stroke:#000000;stroke-width:0.283465;stroke-linecap:butt;stroke-linejoin:miter;stroke-miterlimit:10;stroke-dasharray:none;stroke-opacity:1"
       id="path22" /><path
       d="M 11.93535,11.594811 23.8707,67.032385"
       style="fill:none;stroke:#000000;stroke-width:0.283465;stroke-linecap:butt;stroke-linejoin:miter;stroke-miterlimit:10;stroke-dasharray:none;stroke-opacity:1"
       id="path24" /><path
       d="M 11.93535,11.594811 29.838375,73.697788"
       style="fill:none;stroke:#000000;stroke-width:0.283465;stroke-linecap:butt;stroke-linejoin:miter;stroke-miterlimit:10;stroke-dasharray:none;stroke-opacity:1"
       id="path26" /><path
       d="M 17.903025,26.89509 35.806051,82.19906"
       style="fill:none;stroke:#000000;stroke-width:0.283465;stroke-linecap:butt;stroke-linejoin:miter;stroke-miterlimit:10;stroke-dasharray:none;stroke-opacity:1"
       id="path28" /><path
       d="M 23.8707,36.887545 41.773726,93.233087"
       style="fill:none;stroke:#000000;stroke-width:0.283465;stroke-linecap:butt;stroke-linejoin:miter;stroke-miterlimit:10;stroke-dasharray:none;stroke-opacity:1"
       id="path30" /><path
       d="M 29.838375,48.824493 47.741401,102.76594"
       style="fill:none;stroke:#000000;stroke-width:0.283465;stroke-linecap:butt;stroke-linejoin:miter;stroke-miterlimit:10;stroke-dasharray:none;stroke-opacity:1"
       id="path32" /><path
       d="M 35.806051,54.211274 53.709076,110.86199"
       style="fill:none;stroke:#000000;stroke-width:0.283465;stroke-linecap:butt;stroke-linejoin:miter;stroke-miterlimit:10;stroke-dasharray:none;stroke-opacity:1"
       id="path34" /><g
       id="g36"><path
         d="M 41.773726,56.692913 59.676751,113.38583"
         style="fill:none;stroke:#0000ff;stroke-width:0.56692898;stroke-linecap:butt;stroke-linejoin:miter;stroke-miterlimit:10;stroke-dasharray:2;stroke-dashoffset:0;stroke-opacity:1"
         id="path38" /></g><path
       d="m 47.741401,55.665025 11.93535,57.720805"
       style="fill:none;stroke:#000000;stroke-width:0.283465;stroke-linecap:butt;stroke-linejoin:miter;stroke-miterlimit:10;stroke-dasharray:none;stroke-opacity:1"
       id="path40" /><path
       d="m 53.709076,48.514208 11.93535,53.318722"
       style="fill:none;stroke:#000000;stroke-width:0.283465;stroke-linecap:butt;stroke-linejoin:miter;stroke-miterlimit:10;stroke-dasharray:none;stroke-opacity:1"
       id="path42" /><path
       d="m 59.676751,37.287805 11.93535,57.131523"
       style="fill:none;stroke:#000000;stroke-width:0.283465;stroke-linecap:butt;stroke-linejoin:miter;stroke-miterlimit:10;stroke-dasharray:none;stroke-opacity:1"
       id="path44" /><path
       d="m 65.644426,30.211843 11.93535,55.00207"
       style="fill:none;stroke:#000000;stroke-width:0.283465;stroke-linecap:butt;stroke-linejoin:miter;stroke-miterlimit:10;stroke-dasharray:none;stroke-opacity:1"
       id="path46" /><path
       d="m 71.612101,25.078015 11.93535,54.287234"
       style="fill:none;stroke:#000000;stroke-width:0.283465;stroke-linecap:butt;stroke-linejoin:miter;stroke-miterlimit:10;stroke-dasharray:none;stroke-opacity:1"
       id="path48" /><path
       d="m 77.579776,19.641731 11.93535,55.861863"
       style="fill:none;stroke:#000000;stroke-width:0.283465;stroke-linecap:butt;stroke-linejoin:miter;stroke-miterlimit:10;stroke-dasharray:none;stroke-opacity:1"
       id="path50" /><path
       d="m 83.547451,16.411135 11.93535,56.637366"
       style="fill:none;stroke:#000000;stroke-width:0.283465;stroke-linecap:butt;stroke-linejoin:miter;stroke-miterlimit:10;stroke-dasharray:none;stroke-opacity:1"
       id="path52" /><path
       d="M 89.515126,14.634331 101.45048,71.213075"
       style="fill:none;stroke:#000000;stroke-width:0.283465;stroke-linecap:butt;stroke-linejoin:miter;stroke-miterlimit:10;stroke-dasharray:none;stroke-opacity:1"
       id="path54" /><path
       d="M 95.482801,12.507324 107.41815,69.531595"
       style="fill:none;stroke:#000000;stroke-width:0.283465;stroke-linecap:butt;stroke-linejoin:miter;stroke-miterlimit:10;stroke-dasharray:none;stroke-opacity:1"
       id="path56" /><path
       d="m 101.45048,11.146191 11.93535,57.432641"
       style="fill:none;stroke:#000000;stroke-width:0.283465;stroke-linecap:butt;stroke-linejoin:miter;stroke-miterlimit:10;stroke-dasharray:none;stroke-opacity:1"
       id="path58" /><path
       d="m 107.41815,10.690103 5.96768,57.888729"
       style="fill:none;stroke:#000000;stroke-width:0.283465;stroke-linecap:butt;stroke-linejoin:miter;stroke-miterlimit:10;stroke-dasharray:none;stroke-opacity:1"
       id="path60" /><path
       d="m 113.38583,8.883774 0,59.695058"
       style="fill:none;stroke:#000000;stroke-width:0.283465;stroke-linecap:butt;stroke-linejoin:miter;stroke-miterlimit:10;stroke-dasharray:none;stroke-opacity:1"
       id="path62" /><g
       id="g64"><path
         d="m 0,0 5.967675,1.524038 5.967675,10.070773 5.967675,15.300279 5.967675,9.992455 5.967675,11.936948 5.967676,5.386781 5.967675,2.481639 5.967675,-1.027888 5.967675,-7.150817 5.967675,-11.226403 5.967675,-7.075962 5.967675,-5.133828 5.967675,-5.436284 5.967675,-3.230596 5.967675,-1.776804 5.967675,-2.127007 5.967679,-1.361133 5.96767,-0.456088 5.96768,-1.806329"
         style="fill:none;stroke:#000000;stroke-width:0.56692898;stroke-linecap:butt;stroke-linejoin:miter;stroke-miterlimit:10;stroke-dasharray:none;stroke-opacity:1"
         id="path66" /></g><path
       d="m 1.417323,0 -2e-6,0.002474 C 1.416665,0.378156 1.266881,0.738209 1.000886,1.00351 0.73489,1.26881 0.374446,1.41765 -0.001237,1.417322 -0.37692,1.416994 -0.737104,1.267525 -1.002636,1.001761 -1.268168,0.735997 -1.417323,0.375683 -1.417323,0 c 0,-0.375683 0.149155,-0.735997 0.414687,-1.001761 0.265532,-0.265764 0.625716,-0.415233 1.001399,-0.415561 0.375683,-3.28e-4 0.736127,0.148512 1.002123,0.413812 0.265995,0.265301 0.415779,0.625354 0.416435,1.001036 L 1.417323,0 Z"
       style="fill:#000000;fill-opacity:1;fill-rule:nonzero;stroke:none"
       id="path68" /><path
       d="m 7.384998,1.524038 -2e-6,0.00247 C 7.38434,1.902194 7.234557,2.262247 6.968561,2.527547 6.702565,2.792847 6.342121,2.941688 5.966438,2.94136 5.590755,2.941032 5.230571,2.791563 4.965039,2.525799 4.699507,2.260035 4.550352,1.899721 4.550352,1.524038 4.550352,1.148355 4.699507,0.78804 4.965039,0.522277 5.230571,0.256513 5.590755,0.107043 5.966438,0.106715 6.342121,0.106388 6.702565,0.255228 6.968561,0.520528 7.234557,0.785828 7.38434,1.145881 7.384996,1.521564 l 2e-6,0.00247 z"
       style="fill:#000000;fill-opacity:1;fill-rule:nonzero;stroke:none"
       id="path70" /><path
       d="m 13.352673,11.594811 -2e-6,0.0025 c -6.56e-4,0.375683 -0.150439,0.735736 -0.416435,1.001036 -0.265996,0.2653 -0.62644,0.414141 -1.002123,0.413813 -0.375683,-3.28e-4 -0.735866,-0.149797 -1.001399,-0.415561 -0.265532,-0.265764 -0.414687,-0.626078 -0.414687,-1.001761 0,-0.375684 0.149155,-0.735998 0.414687,-1.001762 0.265533,-0.265764 0.625716,-0.415233 1.001399,-0.415561 0.375683,-3.28e-4 0.736127,0.148513 1.002123,0.413813 0.265996,0.2653 0.415779,0.625353 0.416435,1.001036 l 2e-6,0.0025 z"
       style="fill:#000000;fill-opacity:1;fill-rule:nonzero;stroke:none"
       id="path72" /><path
       d="m 19.320348,26.89509 -2e-6,0.0025 c -6.56e-4,0.375683 -0.150439,0.735736 -0.416435,1.001036 -0.265995,0.2653 -0.62644,0.414141 -1.002123,0.413813 -0.375683,-3.28e-4 -0.735866,-0.149797 -1.001399,-0.415561 -0.265532,-0.265764 -0.414687,-0.626078 -0.414687,-1.001762 0,-0.375683 0.149155,-0.735997 0.414687,-1.001761 0.265533,-0.265764 0.625716,-0.415233 1.001399,-0.415561 0.375683,-3.28e-4 0.736128,0.148513 1.002123,0.413813 0.265996,0.2653 0.415779,0.625353 0.416435,1.001036 l 2e-6,0.0025 z"
       style="fill:#000000;fill-opacity:1;fill-rule:nonzero;stroke:none"
       id="path74" /><path
       d="m 25.288023,36.887545 -2e-6,0.0025 c -6.56e-4,0.375683 -0.150439,0.735736 -0.416435,1.001036 -0.265995,0.2653 -0.62644,0.414141 -1.002122,0.413813 -0.375683,-3.28e-4 -0.735867,-0.149797 -1.001399,-0.415561 -0.265533,-0.265764 -0.414687,-0.626078 -0.414687,-1.001761 0,-0.375683 0.149154,-0.735998 0.414687,-1.001762 0.265532,-0.265763 0.625716,-0.415233 1.001399,-0.415561 0.375682,-3.27e-4 0.736127,0.148513 1.002122,0.413813 0.265996,0.2653 0.415779,0.625353 0.416435,1.001036 l 2e-6,0.0025 z"
       style="fill:#000000;fill-opacity:1;fill-rule:nonzero;stroke:none"
       id="path76" /><path
       d="m 31.255698,48.824493 -2e-6,0.0025 c -6.56e-4,0.375683 -0.150439,0.735736 -0.416435,1.001036 -0.265995,0.2653 -0.626439,0.41414 -1.002122,0.413813 -0.375683,-3.28e-4 -0.735867,-0.149798 -1.001399,-0.415561 -0.265532,-0.265764 -0.414687,-0.626079 -0.414687,-1.001762 0,-0.375683 0.149155,-0.735997 0.414687,-1.001761 0.265532,-0.265764 0.625716,-0.415233 1.001399,-0.415561 0.375683,-3.28e-4 0.736127,0.148513 1.002122,0.413813 0.265996,0.2653 0.415779,0.625353 0.416435,1.001036 l 2e-6,0.0025 z"
       style="fill:#000000;fill-opacity:1;fill-rule:nonzero;stroke:none"
       id="path78" /><path
       d="m 37.223373,54.211274 -2e-6,0.0025 c -6.55e-4,0.375682 -0.150439,0.735735 -0.416435,1.001036 -0.265995,0.2653 -0.626439,0.41414 -1.002122,0.413812 -0.375683,-3.28e-4 -0.735867,-0.149797 -1.001399,-0.415561 -0.265532,-0.265764 -0.414687,-0.626078 -0.414687,-1.001761 0,-0.375683 0.149155,-0.735997 0.414687,-1.001761 0.265532,-0.265764 0.625716,-0.415233 1.001399,-0.415561 0.375683,-3.28e-4 0.736127,0.148512 1.002122,0.413812 0.265996,0.2653 0.41578,0.625354 0.416435,1.001036 l 2e-6,0.0025 z"
       style="fill:#000000;fill-opacity:1;fill-rule:nonzero;stroke:none"
       id="path80" /><g
       id="g82"><path
         d="m 43.191048,56.692913 -2e-6,0.0025 c -6.55e-4,0.375683 -0.150439,0.735736 -0.416434,1.001036 -0.265996,0.2653 -0.62644,0.414141 -1.002123,0.413813 -0.375683,-3.28e-4 -0.735867,-0.149797 -1.001399,-0.415561 -0.265532,-0.265764 -0.414687,-0.626079 -0.414687,-1.001762 0,-0.375683 0.149155,-0.735997 0.414687,-1.001761 0.265532,-0.265764 0.625716,-0.415233 1.001399,-0.415561 0.375683,-3.28e-4 0.736127,0.148513 1.002123,0.413813 0.265995,0.2653 0.415779,0.625353 0.416434,1.001036 l 2e-6,0.0025 z"
         style="fill:#0000ff;fill-opacity:1;fill-rule:nonzero;stroke:none"
         id="path84" /></g><path
       d="m 49.158724,55.665025 -3e-6,0.0025 c -6.55e-4,0.375683 -0.150439,0.735736 -0.416434,1.001036 -0.265996,0.2653 -0.62644,0.414141 -1.002123,0.413813 -0.375683,-3.28e-4 -0.735867,-0.149797 -1.001399,-0.415561 -0.265532,-0.265764 -0.414687,-0.626078 -0.414687,-1.001761 0,-0.375683 0.149155,-0.735997 0.414687,-1.001761 0.265532,-0.265764 0.625716,-0.415234 1.001399,-0.415562 0.375683,-3.27e-4 0.736127,0.148513 1.002123,0.413813 0.265995,0.2653 0.415779,0.625354 0.416434,1.001036 l 3e-6,0.0025 z"
       style="fill:#000000;fill-opacity:1;fill-rule:nonzero;stroke:none"
       id="path86" /><path
       d="m 55.126399,48.514208 -2e-6,0.0025 c -6.56e-4,0.375683 -0.15044,0.735736 -0.416435,1.001036 -0.265996,0.265301 -0.62644,0.414141 -1.002123,0.413813 -0.375683,-3.28e-4 -0.735867,-0.149797 -1.001399,-0.415561 -0.265532,-0.265764 -0.414687,-0.626078 -0.414687,-1.001761 0,-0.375683 0.149155,-0.735997 0.414687,-1.001761 0.265532,-0.265764 0.625716,-0.415234 1.001399,-0.415561 0.375683,-3.28e-4 0.736127,0.148512 1.002123,0.413812 0.265995,0.2653 0.415779,0.625354 0.416435,1.001036 l 2e-6,0.0025 z"
       style="fill:#000000;fill-opacity:1;fill-rule:nonzero;stroke:none"
       id="path88" /><path
       d="m 61.094074,37.287805 -2e-6,0.0025 c -6.56e-4,0.375683 -0.15044,0.735736 -0.416435,1.001036 -0.265996,0.2653 -0.62644,0.414141 -1.002123,0.413813 -0.375683,-3.28e-4 -0.735867,-0.149797 -1.001399,-0.415561 -0.265532,-0.265764 -0.414687,-0.626078 -0.414687,-1.001762 0,-0.375683 0.149155,-0.735997 0.414687,-1.001761 0.265532,-0.265764 0.625716,-0.415233 1.001399,-0.415561 0.375683,-3.28e-4 0.736127,0.148513 1.002123,0.413813 0.265995,0.2653 0.415779,0.625353 0.416435,1.001036 l 2e-6,0.0025 z"
       style="fill:#000000;fill-opacity:1;fill-rule:nonzero;stroke:none"
       id="path90" /><path
       d="m 67.061749,30.211843 -2e-6,0.0025 c -6.56e-4,0.375682 -0.15044,0.735736 -0.416435,1.001036 -0.265996,0.2653 -0.62644,0.41414 -1.002123,0.413812 -0.375683,-3.27e-4 -0.735867,-0.149797 -1.001399,-0.415561 -0.265532,-0.265764 -0.414687,-0.626078 -0.414687,-1.001761 0,-0.375683 0.149155,-0.735997 0.414687,-1.001761 0.265532,-0.265764 0.625716,-0.415233 1.001399,-0.415561 0.375683,-3.28e-4 0.736127,0.148512 1.002123,0.413812 0.265995,0.265301 0.415779,0.625354 0.416435,1.001036 l 2e-6,0.0025 z"
       style="fill:#000000;fill-opacity:1;fill-rule:nonzero;stroke:none"
       id="path92" /><path
       d="m 73.029424,25.078015 -2e-6,0.0025 c -6.56e-4,0.375683 -0.150439,0.735736 -0.416435,1.001036 -0.265996,0.2653 -0.62644,0.414141 -1.002123,0.413813 -0.375683,-3.28e-4 -0.735867,-0.149797 -1.001399,-0.415561 -0.265532,-0.265764 -0.414687,-0.626078 -0.414687,-1.001761 0,-0.375683 0.149155,-0.735998 0.414687,-1.001761 0.265532,-0.265764 0.625716,-0.415234 1.001399,-0.415562 0.375683,-3.27e-4 0.736127,0.148513 1.002123,0.413813 0.265996,0.2653 0.415779,0.625354 0.416435,1.001036 l 2e-6,0.0025 z"
       style="fill:#000000;fill-opacity:1;fill-rule:nonzero;stroke:none"
       id="path94" /><path
       d="m 78.997099,19.641731 -2e-6,0.0025 c -6.56e-4,0.375682 -0.150439,0.735736 -0.416435,1.001036 -0.265996,0.2653 -0.62644,0.41414 -1.002123,0.413812 -0.375683,-3.27e-4 -0.735866,-0.149797 -1.001399,-0.415561 -0.265532,-0.265764 -0.414687,-0.626078 -0.414687,-1.001761 0,-0.375683 0.149155,-0.735997 0.414687,-1.001761 0.265533,-0.265764 0.625716,-0.415233 1.001399,-0.415561 0.375683,-3.28e-4 0.736127,0.148512 1.002123,0.413813 0.265996,0.2653 0.415779,0.625353 0.416435,1.001035 l 2e-6,0.0025 z"
       style="fill:#000000;fill-opacity:1;fill-rule:nonzero;stroke:none"
       id="path96" /><path
       d="m 84.964774,16.411135 -2e-6,0.0025 c -6.56e-4,0.375683 -0.150439,0.735736 -0.416435,1.001036 -0.265995,0.2653 -0.62644,0.41414 -1.002123,0.413813 -0.375682,-3.28e-4 -0.735866,-0.149797 -1.001398,-0.415561 -0.265533,-0.265764 -0.414688,-0.626079 -0.414688,-1.001762 0,-0.375683 0.149155,-0.735997 0.414688,-1.001761 0.265532,-0.265764 0.625716,-0.415233 1.001398,-0.415561 0.375683,-3.28e-4 0.736128,0.148513 1.002123,0.413813 0.265996,0.2653 0.415779,0.625353 0.416435,1.001036 l 2e-6,0.0025 z"
       style="fill:#000000;fill-opacity:1;fill-rule:nonzero;stroke:none"
       id="path98" /><path
       d="m 90.932449,14.634331 -2e-6,0.0025 c -6.56e-4,0.375683 -0.150439,0.735736 -0.416435,1.001036 -0.265995,0.2653 -0.626439,0.414141 -1.002122,0.413813 -0.375683,-3.28e-4 -0.735867,-0.149797 -1.001399,-0.415561 -0.265533,-0.265764 -0.414687,-0.626078 -0.414687,-1.001761 0,-0.375683 0.149154,-0.735998 0.414687,-1.001762 0.265532,-0.265764 0.625716,-0.415233 1.001399,-0.415561 0.375683,-3.28e-4 0.736127,0.148513 1.002122,0.413813 0.265996,0.2653 0.415779,0.625353 0.416435,1.001036 l 2e-6,0.0025 z"
       style="fill:#000000;fill-opacity:1;fill-rule:nonzero;stroke:none"
       id="path100" /><path
       d="m 96.900124,12.507324 -2e-6,0.0025 c -6.56e-4,0.375682 -0.150439,0.735735 -0.416435,1.001036 -0.265995,0.2653 -0.626439,0.41414 -1.002122,0.413812 -0.375683,-3.28e-4 -0.735867,-0.149797 -1.001399,-0.415561 -0.265532,-0.265764 -0.414687,-0.626078 -0.414687,-1.001761 0,-0.375683 0.149155,-0.735997 0.414687,-1.001761 0.265532,-0.265764 0.625716,-0.415234 1.001399,-0.415561 0.375683,-3.28e-4 0.736127,0.148512 1.002122,0.413812 0.265996,0.2653 0.415779,0.625354 0.416435,1.001036 l 2e-6,0.0025 z"
       style="fill:#000000;fill-opacity:1;fill-rule:nonzero;stroke:none"
       id="path102" /><path
       d="m 102.8678,11.146191 0,0.0025 c -6.6e-4,0.375683 -0.15044,0.735736 -0.41644,1.001036 -0.26599,0.2653 -0.62644,0.414141 -1.00212,0.413813 -0.37568,-3.28e-4 -0.73587,-0.149797 -1.0014,-0.415561 -0.26553,-0.265764 -0.41469,-0.626078 -0.41469,-1.001761 0,-0.375683 0.14916,-0.735998 0.41469,-1.001761 0.26553,-0.265764 0.62572,-0.415234 1.0014,-0.415562 0.37568,-3.27e-4 0.73613,0.148513 1.00212,0.413813 0.266,0.2653 0.41578,0.625354 0.41644,1.001036 l 0,0.0025 z"
       style="fill:#000000;fill-opacity:1;fill-rule:nonzero;stroke:none"
       id="path104" /><path
       d="m 108.83547,10.690103 0,0.0025 c -6.5e-4,0.375682 -0.15044,0.735736 -0.41643,1.001036 -0.266,0.2653 -0.62644,0.41414 -1.00212,0.413812 -0.37569,-3.27e-4 -0.73587,-0.149797 -1.0014,-0.415561 -0.26554,-0.265764 -0.41469,-0.626078 -0.41469,-1.001761 0,-0.375683 0.14915,-0.735997 0.41469,-1.001761 0.26553,-0.265764 0.62571,-0.415233 1.0014,-0.415561 0.37568,-3.28e-4 0.73612,0.148512 1.00212,0.413813 0.26599,0.2653 0.41578,0.625353 0.41643,1.001035 l 0,0.0025 z"
       style="fill:#000000;fill-opacity:1;fill-rule:nonzero;stroke:none"
       id="path106" /><path
       d="m 114.80315,8.883774 0,0.00247 c -6.6e-4,0.375682 -0.15044,0.735735 -0.41644,1.001036 -0.26599,0.2653 -0.62644,0.41414 -1.00212,0.413812 -0.37568,-3.28e-4 -0.73587,-0.149797 -1.0014,-0.415561 -0.26553,-0.265764 -0.41469,-0.626078 -0.41469,-1.001761 0,-0.375683 0.14916,-0.735997 0.41469,-1.001761 0.26553,-0.265764 0.62572,-0.415233 1.0014,-0.415561 0.37568,-3.28e-4 0.73613,0.148512 1.00212,0.413812 0.266,0.2653 0.41578,0.625354 0.41644,1.001036 l 0,0.00247 z"
       style="fill:#000000;fill-opacity:1;fill-rule:nonzero;stroke:none"
       id="path108" /><g
       id="g110"><path
         d="m 0,56.692913 5.967675,0.402089 5.967675,1.289269 5.967675,2.003212 5.967675,6.644902 5.967675,6.665403 5.967676,8.501272 5.967675,11.034027 5.967675,9.532853 5.967675,8.09605 5.967675,2.52384 5.967675,-11.5529 5.967675,-7.413602 5.967675,-9.205415 5.967675,-5.848664 5.967675,-3.861655 5.967675,-2.455093 5.967679,-1.835426 5.96767,-1.68148 5.96768,-0.952763"
         style="fill:none;stroke:#000000;stroke-width:0.56692898;stroke-linecap:butt;stroke-linejoin:miter;stroke-miterlimit:10;stroke-dasharray:none;stroke-opacity:1"
         id="path112" /></g><path
       d="m 1.417323,56.692913 -2e-6,0.0025 c -6.56e-4,0.375683 -0.15044,0.735736 -0.416435,1.001036 -0.265996,0.2653 -0.62644,0.414141 -1.002123,0.413813 -0.375683,-3.28e-4 -0.735867,-0.149797 -1.001399,-0.415561 -0.265532,-0.265764 -0.414687,-0.626079 -0.414687,-1.001762 0,-0.375683 0.149155,-0.735997 0.414687,-1.001761 0.265532,-0.265764 0.625716,-0.415233 1.001399,-0.415561 0.375683,-3.28e-4 0.736127,0.148513 1.002123,0.413813 0.265995,0.2653 0.415779,0.625353 0.416435,1.001036 l 2e-6,0.0025 z"
       style="fill:#000000;fill-opacity:1;fill-rule:nonzero;stroke:none"
       id="path114" /><path
       d="m 7.384998,57.095002 -2e-6,0.0025 c -6.56e-4,0.375683 -0.150439,0.735736 -0.416435,1.001036 -0.265996,0.2653 -0.62644,0.41414 -1.002123,0.413813 C 5.590755,58.511997 5.230571,58.362527 4.965039,58.096764 4.699507,57.831 4.550352,57.470685 4.550352,57.095002 c 0,-0.375683 0.149155,-0.735997 0.414687,-1.001761 0.265532,-0.265764 0.625716,-0.415233 1.001399,-0.415561 0.375683,-3.28e-4 0.736127,0.148513 1.002123,0.413813 0.265996,0.2653 0.415779,0.625353 0.416435,1.001036 l 2e-6,0.0025 z"
       style="fill:#000000;fill-opacity:1;fill-rule:nonzero;stroke:none"
       id="path116" /><path
       d="m 13.352673,58.384271 -2e-6,0.0025 c -6.56e-4,0.375682 -0.150439,0.735736 -0.416435,1.001036 -0.265996,0.2653 -0.62644,0.41414 -1.002123,0.413812 -0.375683,-3.27e-4 -0.735866,-0.149797 -1.001399,-0.415561 -0.265532,-0.265764 -0.414687,-0.626078 -0.414687,-1.001761 0,-0.375683 0.149155,-0.735997 0.414687,-1.001761 0.265533,-0.265764 0.625716,-0.415233 1.001399,-0.415561 0.375683,-3.28e-4 0.736127,0.148512 1.002123,0.413813 0.265996,0.2653 0.415779,0.625353 0.416435,1.001035 l 2e-6,0.0025 z"
       style="fill:#000000;fill-opacity:1;fill-rule:nonzero;stroke:none"
       id="path118" /><path
       d="m 19.320348,60.387483 -2e-6,0.0025 c -6.56e-4,0.375682 -0.150439,0.735736 -0.416435,1.001036 -0.265995,0.2653 -0.62644,0.41414 -1.002123,0.413812 -0.375683,-3.27e-4 -0.735866,-0.149797 -1.001399,-0.415561 -0.265532,-0.265764 -0.414687,-0.626078 -0.414687,-1.001761 0,-0.375683 0.149155,-0.735997 0.414687,-1.001761 0.265533,-0.265764 0.625716,-0.415233 1.001399,-0.415561 0.375683,-3.28e-4 0.736128,0.148512 1.002123,0.413813 0.265996,0.2653 0.415779,0.625353 0.416435,1.001036 l 2e-6,0.0025 z"
       style="fill:#000000;fill-opacity:1;fill-rule:nonzero;stroke:none"
       id="path120" /><path
       d="m 25.288023,67.032385 -2e-6,0.0025 c -6.56e-4,0.375682 -0.150439,0.735735 -0.416435,1.001035 -0.265995,0.265301 -0.62644,0.414141 -1.002122,0.413813 -0.375683,-3.28e-4 -0.735867,-0.149797 -1.001399,-0.415561 -0.265533,-0.265764 -0.414687,-0.626078 -0.414687,-1.001761 0,-0.375683 0.149154,-0.735997 0.414687,-1.001761 0.265532,-0.265764 0.625716,-0.415234 1.001399,-0.415561 0.375682,-3.28e-4 0.736127,0.148512 1.002122,0.413812 0.265996,0.2653 0.415779,0.625354 0.416435,1.001036 l 2e-6,0.0025 z"
       style="fill:#000000;fill-opacity:1;fill-rule:nonzero;stroke:none"
       id="path122" /><path
       d="m 31.255698,73.697788 -2e-6,0.0025 c -6.56e-4,0.375683 -0.150439,0.735736 -0.416435,1.001036 -0.265995,0.2653 -0.626439,0.414141 -1.002122,0.413813 -0.375683,-3.28e-4 -0.735867,-0.149797 -1.001399,-0.415561 -0.265532,-0.265764 -0.414687,-0.626078 -0.414687,-1.001761 0,-0.375684 0.149155,-0.735998 0.414687,-1.001762 0.265532,-0.265764 0.625716,-0.415233 1.001399,-0.415561 0.375683,-3.28e-4 0.736127,0.148513 1.002122,0.413813 0.265996,0.2653 0.415779,0.625353 0.416435,1.001036 l 2e-6,0.0025 z"
       style="fill:#000000;fill-opacity:1;fill-rule:nonzero;stroke:none"
       id="path124" /><path
       d="m 37.223373,82.19906 -2e-6,0.0025 c -6.55e-4,0.375682 -0.150439,0.735735 -0.416435,1.001036 -0.265995,0.2653 -0.626439,0.41414 -1.002122,0.413812 -0.375683,-3.28e-4 -0.735867,-0.149797 -1.001399,-0.415561 -0.265532,-0.265764 -0.414687,-0.626078 -0.414687,-1.001761 0,-0.375683 0.149155,-0.735997 0.414687,-1.001761 0.265532,-0.265764 0.625716,-0.415234 1.001399,-0.415561 0.375683,-3.28e-4 0.736127,0.148512 1.002122,0.413812 0.265996,0.2653 0.41578,0.625354 0.416435,1.001036 l 2e-6,0.0025 z"
       style="fill:#000000;fill-opacity:1;fill-rule:nonzero;stroke:none"
       id="path126" /><path
       d="m 43.191048,93.233087 -2e-6,0.0025 c -6.55e-4,0.375683 -0.150439,0.735736 -0.416434,1.001036 -0.265996,0.2653 -0.62644,0.414141 -1.002123,0.413813 -0.375683,-3.28e-4 -0.735867,-0.149797 -1.001399,-0.415561 -0.265532,-0.265764 -0.414687,-0.626078 -0.414687,-1.001761 0,-0.375684 0.149155,-0.735998 0.414687,-1.001762 0.265532,-0.265764 0.625716,-0.415233 1.001399,-0.415561 0.375683,-3.28e-4 0.736127,0.148513 1.002123,0.413813 0.265995,0.2653 0.415779,0.625353 0.416434,1.001036 l 2e-6,0.0025 z"
       style="fill:#000000;fill-opacity:1;fill-rule:nonzero;stroke:none"
       id="path128" /><path
       d="m 49.158724,102.76594 -3e-6,0.002 c -6.55e-4,0.37568 -0.150439,0.73573 -0.416434,1.00103 -0.265996,0.26531 -0.62644,0.41414 -1.002123,0.41382 -0.375683,-3.3e-4 -0.735867,-0.1498 -1.001399,-0.41556 -0.265532,-0.26577 -0.414687,-0.62608 -0.414687,-1.00176 0,-0.37569 0.149155,-0.736 0.414687,-1.00177 0.265532,-0.26576 0.625716,-0.41523 1.001399,-0.41556 0.375683,-3.2e-4 0.736127,0.14852 1.002123,0.41382 0.265995,0.2653 0.415779,0.62535 0.416434,1.00103 l 3e-6,0.002 z"
       style="fill:#000000;fill-opacity:1;fill-rule:nonzero;stroke:none"
       id="path130" /><path
       d="m 55.126399,110.86199 -2e-6,0.002 c -6.56e-4,0.37568 -0.15044,0.73573 -0.416435,1.00103 -0.265996,0.2653 -0.62644,0.41415 -1.002123,0.41382 -0.375683,-3.3e-4 -0.735867,-0.1498 -1.001399,-0.41556 -0.265532,-0.26577 -0.414687,-0.62608 -0.414687,-1.00176 0,-0.37569 0.149155,-0.736 0.414687,-1.00177 0.265532,-0.26576 0.625716,-0.41523 1.001399,-0.41556 0.375683,-3.3e-4 0.736127,0.14852 1.002123,0.41381 0.265995,0.2653 0.415779,0.62536 0.416435,1.00104 l 2e-6,0.002 z"
       style="fill:#000000;fill-opacity:1;fill-rule:nonzero;stroke:none"
       id="path132" /><g
       id="g134"><path
         d="m 61.094074,113.38583 -2e-6,0.002 c -6.56e-4,0.37568 -0.15044,0.73574 -0.416435,1.00104 -0.265996,0.2653 -0.62644,0.41414 -1.002123,0.41381 -0.375683,-3.3e-4 -0.735867,-0.1498 -1.001399,-0.41556 -0.265532,-0.26577 -0.414687,-0.62608 -0.414687,-1.00176 0,-0.37569 0.149155,-0.736 0.414687,-1.00176 0.265532,-0.26577 0.625716,-0.41524 1.001399,-0.41557 0.375683,-3.2e-4 0.736127,0.14852 1.002123,0.41382 0.265995,0.2653 0.415779,0.62535 0.416435,1.00103 l 2e-6,0.002 z"
         style="fill:#0000ff;fill-opacity:1;fill-rule:nonzero;stroke:none"
         id="path136" /></g><path
       d="m 67.061749,101.83293 -2e-6,0.002 c -6.56e-4,0.37568 -0.15044,0.73573 -0.416435,1.00103 -0.265996,0.2653 -0.62644,0.41414 -1.002123,0.41382 -0.375683,-3.3e-4 -0.735867,-0.1498 -1.001399,-0.41557 -0.265532,-0.26576 -0.414687,-0.62607 -0.414687,-1.00176 0,-0.37568 0.149155,-0.73599 0.414687,-1.00176 0.265532,-0.26576 0.625716,-0.41523 1.001399,-0.41556 0.375683,-3.3e-4 0.736127,0.14851 1.002123,0.41381 0.265995,0.2653 0.415779,0.62536 0.416435,1.00104 l 2e-6,0.002 z"
       style="fill:#000000;fill-opacity:1;fill-rule:nonzero;stroke:none"
       id="path138" /><path
       d="m 73.029424,94.419328 -2e-6,0.0025 c -6.56e-4,0.375683 -0.150439,0.735736 -0.416435,1.001036 -0.265996,0.2653 -0.62644,0.414141 -1.002123,0.413813 -0.375683,-3.28e-4 -0.735867,-0.149797 -1.001399,-0.415561 -0.265532,-0.265764 -0.414687,-0.626078 -0.414687,-1.001762 0,-0.375683 0.149155,-0.735997 0.414687,-1.001761 0.265532,-0.265764 0.625716,-0.415233 1.001399,-0.415561 0.375683,-3.28e-4 0.736127,0.148513 1.002123,0.413813 0.265996,0.2653 0.415779,0.625353 0.416435,1.001036 l 2e-6,0.0025 z"
       style="fill:#000000;fill-opacity:1;fill-rule:nonzero;stroke:none"
       id="path140" /><path
       d="m 78.997099,85.213913 -2e-6,0.0025 c -6.56e-4,0.375682 -0.150439,0.735736 -0.416435,1.001036 -0.265996,0.2653 -0.62644,0.41414 -1.002123,0.413812 -0.375683,-3.28e-4 -0.735866,-0.149797 -1.001399,-0.415561 -0.265532,-0.265764 -0.414687,-0.626078 -0.414687,-1.001761 0,-0.375683 0.149155,-0.735997 0.414687,-1.001761 0.265533,-0.265764 0.625716,-0.415233 1.001399,-0.415561 0.375683,-3.28e-4 0.736127,0.148512 1.002123,0.413812 0.265996,0.265301 0.415779,0.625354 0.416435,1.001036 l 2e-6,0.0025 z"
       style="fill:#000000;fill-opacity:1;fill-rule:nonzero;stroke:none"
       id="path142" /><path
       d="m 84.964774,79.365249 -2e-6,0.0025 c -6.56e-4,0.375682 -0.150439,0.735735 -0.416435,1.001035 -0.265995,0.265301 -0.62644,0.414141 -1.002123,0.413813 -0.375682,-3.28e-4 -0.735866,-0.149797 -1.001398,-0.415561 -0.265533,-0.265764 -0.414688,-0.626078 -0.414688,-1.001761 0,-0.375683 0.149155,-0.735997 0.414688,-1.001761 0.265532,-0.265764 0.625716,-0.415234 1.001398,-0.415561 0.375683,-3.28e-4 0.736128,0.148512 1.002123,0.413812 0.265996,0.2653 0.415779,0.625354 0.416435,1.001036 l 2e-6,0.0025 z"
       style="fill:#000000;fill-opacity:1;fill-rule:nonzero;stroke:none"
       id="path144" /><path
       d="m 90.932449,75.503594 -2e-6,0.0025 c -6.56e-4,0.375682 -0.150439,0.735735 -0.416435,1.001036 -0.265995,0.2653 -0.626439,0.41414 -1.002122,0.413812 -0.375683,-3.28e-4 -0.735867,-0.149797 -1.001399,-0.415561 -0.265533,-0.265764 -0.414687,-0.626078 -0.414687,-1.001761 0,-0.375683 0.149154,-0.735997 0.414687,-1.001761 0.265532,-0.265764 0.625716,-0.415233 1.001399,-0.415561 0.375683,-3.28e-4 0.736127,0.148512 1.002122,0.413812 0.265996,0.2653 0.415779,0.625354 0.416435,1.001036 l 2e-6,0.0025 z"
       style="fill:#000000;fill-opacity:1;fill-rule:nonzero;stroke:none"
       id="path146" /><path
       d="m 96.900124,73.048501 -2e-6,0.0025 c -6.56e-4,0.375683 -0.150439,0.735736 -0.416435,1.001036 -0.265995,0.265301 -0.626439,0.414141 -1.002122,0.413813 -0.375683,-3.28e-4 -0.735867,-0.149797 -1.001399,-0.415561 -0.265532,-0.265764 -0.414687,-0.626078 -0.414687,-1.001761 0,-0.375683 0.149155,-0.735997 0.414687,-1.001761 0.265532,-0.265764 0.625716,-0.415234 1.001399,-0.415561 0.375683,-3.28e-4 0.736127,0.148512 1.002122,0.413812 0.265996,0.2653 0.415779,0.625354 0.416435,1.001036 l 2e-6,0.0025 z"
       style="fill:#000000;fill-opacity:1;fill-rule:nonzero;stroke:none"
       id="path148" /><path
       d="m 102.8678,71.213075 0,0.0025 c -6.6e-4,0.375682 -0.15044,0.735736 -0.41644,1.001036 -0.26599,0.2653 -0.62644,0.41414 -1.00212,0.413812 -0.37568,-3.27e-4 -0.73587,-0.149797 -1.0014,-0.415561 -0.26553,-0.265764 -0.41469,-0.626078 -0.41469,-1.001761 0,-0.375683 0.14916,-0.735997 0.41469,-1.001761 0.26553,-0.265764 0.62572,-0.415233 1.0014,-0.415561 0.37568,-3.28e-4 0.73613,0.148512 1.00212,0.413812 0.266,0.265301 0.41578,0.625354 0.41644,1.001036 l 0,0.0025 z"
       style="fill:#000000;fill-opacity:1;fill-rule:nonzero;stroke:none"
       id="path150" /><path
       d="m 108.83547,69.531595 0,0.0025 c -6.5e-4,0.375683 -0.15044,0.735736 -0.41643,1.001036 -0.266,0.2653 -0.62644,0.414141 -1.00212,0.413813 -0.37569,-3.28e-4 -0.73587,-0.149797 -1.0014,-0.415561 -0.26554,-0.265764 -0.41469,-0.626078 -0.41469,-1.001761 0,-0.375683 0.14915,-0.735998 0.41469,-1.001762 0.26553,-0.265763 0.62571,-0.415233 1.0014,-0.415561 0.37568,-3.27e-4 0.73612,0.148513 1.00212,0.413813 0.26599,0.2653 0.41578,0.625353 0.41643,1.001036 l 0,0.0025 z"
       style="fill:#000000;fill-opacity:1;fill-rule:nonzero;stroke:none"
       id="path152" /><path
       d="m 114.80315,68.578832 0,0.0025 c -6.6e-4,0.375683 -0.15044,0.735736 -0.41644,1.001036 -0.26599,0.2653 -0.62644,0.414141 -1.00212,0.413813 -0.37568,-3.28e-4 -0.73587,-0.149797 -1.0014,-0.415561 -0.26553,-0.265764 -0.41469,-0.626078 -0.41469,-1.001761 0,-0.375683 0.14916,-0.735998 0.41469,-1.001761 0.26553,-0.265764 0.62572,-0.415234 1.0014,-0.415562 0.37568,-3.27e-4 0.73613,0.148513 1.00212,0.413813 0.266,0.2653 0.41578,0.625354 0.41644,1.001036 l 0,0.0025 z"
       style="fill:#000000;fill-opacity:1;fill-rule:nonzero;stroke:none"
       id="path154" /></g></svg>